<?xml version="1.0" encoding="UTF-8"?>
<!DOCTYPE svg PUBLIC "-//W3C//DTD SVG 1.1//EN" "http://www.w3.org/Graphics/SVG/1.1/DTD/svg11.dtd">
<svg xmlns="http://www.w3.org/2000/svg" version="1.1" width="565px" height="235px" style="shape-rendering:geometricPrecision; text-rendering:geometricPrecision; image-rendering:optimizeQuality; fill-rule:evenodd; clip-rule:evenodd" xmlns:xlink="http://www.w3.org/1999/xlink">
<g><path style="opacity:1" fill="#1d306d" d="M 141.5,53.5 C 139.098,58.1006 137.765,63.1006 137.5,68.5C 125.833,68.5 114.167,68.5 102.5,68.5C 102.5,67.5 102.5,66.5 102.5,65.5C 102.5,65.1667 102.5,64.8333 102.5,64.5C 103.913,61.7814 104.58,58.7814 104.5,55.5C 104.67,53.1516 105.003,50.8183 105.5,48.5C 105.362,45.523 103.862,43.523 101,42.5C 97.2966,42.2475 93.4632,42.7475 89.5,44C 87.9588,45.5793 86.7922,47.4127 86,49.5C 84.3387,55.811 82.8387,62.1444 81.5,68.5C 79.4318,71.763 78.4318,75.4296 78.5,79.5C 76.1607,90.1879 73.8274,100.855 71.5,111.5C 69.4318,114.763 68.4318,118.43 68.5,122.5C 66.6793,129.769 65.5126,137.102 65,144.5C 65.5,145 66,145.5 66.5,146C 71.5,146.667 76.5,146.667 81.5,146C 82,145.5 82.5,145 83,144.5C 84.6645,136.168 86.8312,128.001 89.5,120C 85.9106,119.793 82.4106,119.293 79,118.5C 79.2126,114.983 80.046,111.649 81.5,108.5C 83.5932,103.122 84.9265,97.4549 85.5,91.5C 104.931,90.845 124.265,90.1783 143.5,89.5C 145.723,78.2777 148.39,67.2777 151.5,56.5C 152.913,53.7814 153.58,50.7814 153.5,47.5C 155.209,37.3319 157.542,27.3319 160.5,17.5C 172.918,15.5497 185.585,14.883 198.5,15.5C 195.984,27.2285 193.317,38.8952 190.5,50.5C 188.432,53.763 187.432,57.4296 187.5,61.5C 185.324,71.8716 182.99,82.2049 180.5,92.5C 178.432,95.763 177.432,99.4296 177.5,103.5C 175.657,112.538 173.657,121.538 171.5,130.5C 169.432,133.763 168.432,137.43 168.5,141.5C 168.483,143.565 168.15,145.565 167.5,147.5C 166.402,148.601 166.235,149.934 167,151.5C 167.513,150.473 168.013,149.473 168.5,148.5C 183.172,107.484 197.838,66.4841 212.5,25.5C 214.104,24.713 214.771,23.3797 214.5,21.5C 214.586,19.323 215.253,17.323 216.5,15.5C 236.822,14.5004 257.156,14.167 277.5,14.5C 275.619,51.1505 273.619,87.8171 271.5,124.5C 269.912,132.277 269.246,140.277 269.5,148.5C 269.5,149.833 269.5,151.167 269.5,152.5C 269.343,153.873 269.51,155.207 270,156.5C 272.252,151.409 273.418,146.075 273.5,140.5C 276.044,127.113 278.711,113.78 281.5,100.5C 283.04,98.1617 283.706,95.4951 283.5,92.5C 284.737,82.6477 286.737,72.981 289.5,63.5C 291.118,58.7442 292.118,53.7442 292.5,48.5C 294.127,37.1633 296.46,25.9966 299.5,15C 310.182,14.1676 320.849,14.3343 331.5,15.5C 333.347,22.4028 334.681,29.4028 335.5,36.5C 335.551,41.1872 336.551,45.5206 338.5,49.5C 338.5,50.1667 338.5,50.8333 338.5,51.5C 338.294,54.4951 338.96,57.1617 340.5,59.5C 342.892,71.5181 345.392,83.5181 348,95.5C 348.352,93.7525 348.852,92.0858 349.5,90.5C 351.375,85.7938 352.375,80.7938 352.5,75.5C 354.326,64.0365 356.659,52.7032 359.5,41.5C 360.785,38.4115 361.451,35.0781 361.5,31.5C 361.986,26.0702 362.986,20.7369 364.5,15.5C 421.87,14.5095 479.037,14.1762 536,14.5C 542.894,15.9433 548.228,19.61 552,25.5C 553.409,40.0865 552.076,54.4198 548,68.5C 536.247,69.4882 524.414,69.8215 512.5,69.5C 513.872,61.484 515.039,53.484 516,45.5C 515.5,45 515,44.5 514.5,44C 509.5,43.3333 504.5,43.3333 499.5,44C 498.667,44.8333 497.833,45.6667 497,46.5C 495.749,53.4234 494.249,60.2568 492.5,67C 493.104,69.4675 494.438,71.4675 496.5,73C 500.645,74.2136 504.645,75.7136 508.5,77.5C 509.287,79.1042 510.62,79.7709 512.5,79.5C 517.908,81.0331 523.241,82.8664 528.5,85C 537.261,89.4035 541.261,96.5702 540.5,106.5C 540.144,112.945 539.144,119.279 537.5,125.5C 535.432,128.763 534.432,132.43 534.5,136.5C 532.935,160.561 520.269,174.061 496.5,177C 484.473,177.706 472.473,177.372 460.5,176C 442.56,173.438 434.56,163.438 436.5,146C 437.267,144.53 437.933,143.03 438.5,141.5C 440.579,135.442 441.913,129.109 442.5,122.5C 442.448,120.097 442.781,117.764 443.5,115.5C 455.548,114.855 467.215,115.522 478.5,117.5C 478.702,119.95 478.369,122.283 477.5,124.5C 475.374,128.445 474.374,132.778 474.5,137.5C 474.343,141.769 476.343,144.269 480.5,145C 484.167,145.667 487.833,145.667 491.5,145C 493.329,144.727 494.829,143.893 496,142.5C 497.963,135.015 499.796,127.515 501.5,120C 500.864,115.878 498.864,112.711 495.5,110.5C 494.713,108.896 493.38,108.229 491.5,108.5C 481.2,105.519 471.2,101.686 461.5,97C 455.546,92.0878 452.879,85.7545 453.5,78C 454.133,70.3401 455.466,62.8401 457.5,55.5C 459.287,52.5911 459.621,49.5911 458.5,46.5C 453.833,46.5 449.167,46.5 444.5,46.5C 443.007,56.2971 441.007,65.9638 438.5,75.5C 436.421,81.5579 435.087,87.8912 434.5,94.5C 429.657,120.548 424.49,146.548 419,172.5C 418.764,174.119 417.931,175.119 416.5,175.5C 405.346,174.505 394.012,174.172 382.5,174.5C 382.5,172.833 382.5,171.167 382.5,169.5C 384.676,157.797 387.009,146.13 389.5,134.5C 391.04,132.162 391.706,129.495 391.5,126.5C 393.326,115.036 395.659,103.703 398.5,92.5C 399.785,89.4115 400.451,86.0781 400.5,82.5C 402.011,79.4557 402.678,76.1224 402.5,72.5C 403.91,63.7854 405.576,55.1187 407.5,46.5C 402.352,45.9264 397.518,46.593 393,48.5C 388.562,70.1922 384.062,91.8589 379.5,113.5C 377.169,118.801 375.835,124.468 375.5,130.5C 373.422,142.555 371.089,154.555 368.5,166.5C 366.777,168.78 366.111,171.447 366.5,174.5C 366.158,175.338 365.492,175.672 364.5,175.5C 354.347,174.506 344.014,174.172 333.5,174.5C 333.405,172.214 332.738,170.214 331.5,168.5C 331.5,168.167 331.5,167.833 331.5,167.5C 331.461,163.267 330.795,159.267 329.5,155.5C 326.751,145.342 324.751,135.009 323.5,124.5C 323.889,121.447 323.223,118.78 321.5,116.5C 319.895,108.54 318.395,100.54 317,92.5C 314.558,103.549 312.058,114.549 309.5,125.5C 308.539,127.265 308.205,129.265 308.5,131.5C 308.5,132.167 308.5,132.833 308.5,133.5C 306.837,135.438 306.171,137.772 306.5,140.5C 304.867,152.167 302.533,163.667 299.5,175C 276.169,175.5 252.836,175.667 229.5,175.5C 229.368,172.43 229.701,169.43 230.5,166.5C 232.468,159.434 233.468,152.1 233.5,144.5C 233.5,141.833 233.5,139.167 233.5,136.5C 225.493,136.334 217.493,136.5 209.5,137C 204.543,149.367 199.877,161.867 195.5,174.5C 171.843,175.5 148.176,175.833 124.5,175.5C 125.092,172.873 125.425,170.206 125.5,167.5C 127.034,159.033 129.034,150.7 131.5,142.5C 133.26,138.453 134.26,134.12 134.5,129.5C 134.692,126.399 135.358,123.399 136.5,120.5C 132.833,119.167 129.167,119.167 125.5,120.5C 124.008,125.469 122.675,130.469 121.5,135.5C 119.926,137.102 119.259,139.102 119.5,141.5C 118.657,154.137 113.324,164.304 103.5,172C 100.107,174.076 96.4402,175.242 92.5,175.5C 85.9384,175.337 79.605,176.004 73.5,177.5C 68.1667,177.5 62.8333,177.5 57.5,177.5C 52.7498,175.969 47.7498,175.302 42.5,175.5C 35.1427,174.906 29.9761,171.239 27,164.5C 25.8484,160.909 25.0151,157.242 24.5,153.5C 29.6141,127.924 35.6141,102.59 42.5,77.5C 44.2598,73.4535 45.2598,69.1201 45.5,64.5C 47.6293,50.9797 51.4627,37.9797 57,25.5C 60.7368,20.4219 65.5701,16.9219 71.5,15C 90.8333,14.3333 110.167,14.3333 129.5,15C 137.938,18.4375 143.105,24.6041 145,33.5C 144.801,40.3045 143.634,46.9711 141.5,53.5 Z M 242.5,65.5 C 241.025,73.3023 240.025,81.3023 239.5,89.5C 238.953,94.8938 238.286,100.56 237.5,106.5C 231.5,106.5 225.5,106.5 219.5,106.5C 222.302,96.7617 225.302,87.095 228.5,77.5C 229.674,76.4863 230.34,75.153 230.5,73.5C 233.492,64.8568 236.492,56.1901 239.5,47.5C 241.167,46.1667 242.833,46.1667 244.5,47.5C 243.178,53.413 242.511,59.413 242.5,65.5 Z"/></g>
<g><path style="opacity:1" fill="#7b87aa" d="M 198.5,15.5 C 185.585,14.883 172.918,15.5497 160.5,17.5C 160.5,16.5 160.5,15.5 160.5,14.5C 173.344,14.1713 186.011,14.5046 198.5,15.5 Z"/></g>
<g><path style="opacity:1" fill="#7a85aa" d="M 214.5,21.5 C 214.771,23.3797 214.104,24.713 212.5,25.5C 212.66,23.847 213.326,22.5137 214.5,21.5 Z"/></g>
<g><path style="opacity:1" fill="#7e88ac" d="M 361.5,31.5 C 361.451,35.0781 360.785,38.4115 359.5,41.5C 359.062,41.5654 358.728,41.3988 358.5,41C 359.32,37.6874 360.32,34.5208 361.5,31.5 Z"/></g>
<g><path style="opacity:1" fill="#69759e" d="M 335.5,36.5 C 337.118,40.5749 338.118,44.9082 338.5,49.5C 336.551,45.5206 335.551,41.1872 335.5,36.5 Z"/></g>
<g><path style="opacity:1" fill="#66729c" d="M 458.5,46.5 C 459.621,49.5911 459.287,52.5911 457.5,55.5C 457.704,52.4824 458.037,49.4824 458.5,46.5 Z"/></g>
<g><path style="opacity:1" fill="#69759e" d="M 153.5,47.5 C 153.58,50.7814 152.913,53.7814 151.5,56.5C 151.42,53.2186 152.087,50.2186 153.5,47.5 Z"/></g>
<g><path style="opacity:1" fill="#6f7aa2" d="M 292.5,48.5 C 292.118,53.7442 291.118,58.7442 289.5,63.5C 289.062,63.5654 288.728,63.3988 288.5,63C 289.655,58.0255 290.988,53.1921 292.5,48.5 Z"/></g>
<g><path style="opacity:1" fill="#737ea4" d="M 190.5,50.5 C 189.945,54.3968 188.945,58.0635 187.5,61.5C 187.432,57.4296 188.432,53.763 190.5,50.5 Z"/></g>
<g><path style="opacity:1" fill="#717ca3" d="M 141.5,53.5 C 140.611,58.7285 139.278,63.7285 137.5,68.5C 137.765,63.1006 139.098,58.1006 141.5,53.5 Z"/></g>
<g><path style="opacity:1" fill="#8c95b5" d="M 338.5,51.5 C 339.768,53.9052 340.435,56.5718 340.5,59.5C 338.96,57.1617 338.294,54.4951 338.5,51.5 Z"/></g>
<g><path style="opacity:1" fill="#69759e" d="M 104.5,55.5 C 104.58,58.7814 103.913,61.7814 102.5,64.5C 102.42,61.2186 103.087,58.2186 104.5,55.5 Z"/></g>
<g><path style="opacity:1" fill="#6d79a1" d="M 45.5,64.5 C 45.2598,69.1201 44.2598,73.4535 42.5,77.5C 42.7402,72.8799 43.7402,68.5465 45.5,64.5 Z"/></g>
<g><path style="opacity:1" fill="#4a5a8b" d="M 102.5,65.5 C 102.5,66.5 102.5,67.5 102.5,68.5C 114.167,68.5 125.833,68.5 137.5,68.5C 125.34,69.6599 113.007,69.8265 100.5,69C 101.085,67.6976 101.751,66.531 102.5,65.5 Z"/></g>
<g><path style="opacity:1" fill="#6f7aa2" d="M 81.5,68.5 C 80.9448,72.3968 79.9448,76.0635 78.5,79.5C 78.4318,75.4296 79.4318,71.763 81.5,68.5 Z"/></g>
<g><path style="opacity:1" fill="#727da4" d="M 242.5,65.5 C 242.51,73.7651 241.51,81.7651 239.5,89.5C 240.025,81.3023 241.025,73.3023 242.5,65.5 Z"/></g>
<g><path style="opacity:1" fill="#8891b2" d="M 230.5,73.5 C 230.34,75.153 229.674,76.4863 228.5,77.5C 228.229,75.6203 228.896,74.287 230.5,73.5 Z"/></g>
<g><path style="opacity:1" fill="#66729c" d="M 402.5,72.5 C 402.678,76.1224 402.011,79.4557 400.5,82.5C 400.549,78.9219 401.215,75.5885 402.5,72.5 Z"/></g>
<g><path style="opacity:1" fill="#6c78a0" d="M 438.5,75.5 C 438.938,75.4346 439.272,75.6012 439.5,76C 437.884,82.2758 436.218,88.4425 434.5,94.5C 435.087,87.8912 436.421,81.5579 438.5,75.5 Z"/></g>
<g><path style="opacity:1" fill="#66739d" d="M 352.5,75.5 C 352.375,80.7938 351.375,85.7938 349.5,90.5C 349.882,85.2558 350.882,80.2558 352.5,75.5 Z"/></g>
<g><path style="opacity:1" fill="#838daf" d="M 508.5,77.5 C 510.153,77.6596 511.486,78.3263 512.5,79.5C 510.62,79.7709 509.287,79.1042 508.5,77.5 Z"/></g>
<g><path style="opacity:1" fill="#828bae" d="M 400.5,82.5 C 400.451,86.0781 399.785,89.4115 398.5,92.5C 398.062,92.5654 397.728,92.3988 397.5,92C 398.32,88.6874 399.32,85.5208 400.5,82.5 Z"/></g>
<g><path style="opacity:1" fill="#455688" d="M 143.5,89.5 C 124.265,90.1783 104.931,90.845 85.5,91.5C 104.471,89.5124 123.804,88.8457 143.5,89.5 Z"/></g>
<g><path style="opacity:1" fill="#6d79a1" d="M 85.5,91.5 C 84.9265,97.4549 83.5932,103.122 81.5,108.5C 82.0735,102.545 83.4068,96.8785 85.5,91.5 Z"/></g>
<g><path style="opacity:1" fill="#737ea4" d="M 180.5,92.5 C 179.945,96.3968 178.945,100.063 177.5,103.5C 177.432,99.4296 178.432,95.763 180.5,92.5 Z"/></g>
<g><path style="opacity:1" fill="#7783a7" d="M 283.5,92.5 C 283.706,95.4951 283.04,98.1617 281.5,100.5C 281.565,97.5718 282.232,94.9052 283.5,92.5 Z"/></g>
<g><path style="opacity:1" fill="#7a85aa" d="M 491.5,108.5 C 493.38,108.229 494.713,108.896 495.5,110.5C 493.847,110.34 492.514,109.674 491.5,108.5 Z"/></g>
<g><path style="opacity:1" fill="#737ea4" d="M 71.5,111.5 C 70.9448,115.397 69.9448,119.063 68.5,122.5C 68.4318,118.43 69.4318,114.763 71.5,111.5 Z"/></g>
<g><path style="opacity:1" fill="#7f8bad" d="M 443.5,115.5 C 455.322,114.505 467.322,114.172 479.5,114.5C 479.737,115.791 479.404,116.791 478.5,117.5C 467.215,115.522 455.548,114.855 443.5,115.5 Z"/></g>
<g><path style="opacity:1" fill="#707ba3" d="M 379.5,113.5 C 378.658,119.398 377.324,125.065 375.5,130.5C 375.835,124.468 377.169,118.801 379.5,113.5 Z"/></g>
<g><path style="opacity:1" fill="#66739d" d="M 321.5,116.5 C 323.223,118.78 323.889,121.447 323.5,124.5C 322.469,122.039 321.802,119.373 321.5,116.5 Z"/></g>
<g><path style="opacity:1" fill="#7984a9" d="M 309.5,125.5 C 309.938,125.435 310.272,125.601 310.5,126C 309.891,127.948 309.224,129.782 308.5,131.5C 308.205,129.265 308.539,127.265 309.5,125.5 Z"/></g>
<g><path style="opacity:1" fill="#747ea5" d="M 442.5,122.5 C 441.913,129.109 440.579,135.442 438.5,141.5C 438.062,141.565 437.728,141.399 437.5,141C 439.109,134.723 440.776,128.556 442.5,122.5 Z"/></g>
<g><path style="opacity:1" fill="#6a769f" d="M 477.5,124.5 C 476.863,129.035 475.863,133.368 474.5,137.5C 474.374,132.778 475.374,128.445 477.5,124.5 Z"/></g>
<g><path style="opacity:1" fill="#737ea4" d="M 537.5,125.5 C 536.945,129.397 535.945,133.063 534.5,136.5C 534.432,132.43 535.432,128.763 537.5,125.5 Z"/></g>
<g><path style="opacity:1" fill="#8992b3" d="M 391.5,126.5 C 391.706,129.495 391.04,132.162 389.5,134.5C 389.565,131.572 390.232,128.905 391.5,126.5 Z"/></g>
<g><path style="opacity:1" fill="#6e79a1" d="M 134.5,129.5 C 134.26,134.12 133.26,138.453 131.5,142.5C 131.062,142.565 130.728,142.399 130.5,142C 131.772,137.72 133.106,133.553 134.5,129.5 Z"/></g>
<g><path style="opacity:1" fill="#737ea4" d="M 171.5,130.5 C 170.945,134.397 169.945,138.063 168.5,141.5C 168.432,137.43 169.432,133.763 171.5,130.5 Z"/></g>
<g><path style="opacity:1" fill="#6f7ba2" d="M 271.5,124.5 C 271.483,132.701 270.817,140.701 269.5,148.5C 269.246,140.277 269.912,132.277 271.5,124.5 Z"/></g>
<g><path style="opacity:1" fill="#737ea5" d="M 308.5,133.5 C 308.279,136.067 307.612,138.401 306.5,140.5C 306.171,137.772 306.837,135.438 308.5,133.5 Z"/></g>
<g><path style="opacity:1" fill="#727da4" d="M 121.5,135.5 C 121.405,137.786 120.738,139.786 119.5,141.5C 119.259,139.102 119.926,137.102 121.5,135.5 Z"/></g>
<g><path style="opacity:1" fill="#7882a8" d="M 273.5,140.5 C 273.418,146.075 272.252,151.409 270,156.5C 269.51,155.207 269.343,153.873 269.5,152.5C 271.208,148.627 272.542,144.627 273.5,140.5 Z"/></g>
<g><path style="opacity:1" fill="#bfc4d6" d="M 167.5,147.5 C 167.5,148.167 167.833,148.5 168.5,148.5C 168.013,149.473 167.513,150.473 167,151.5C 166.235,149.934 166.402,148.601 167.5,147.5 Z"/></g>
<g><path style="opacity:1" fill="#6e7aa2" d="M 233.5,144.5 C 233.468,152.1 232.468,159.434 230.5,166.5C 231.024,158.966 232.024,151.632 233.5,144.5 Z"/></g>
<g><path style="opacity:1" fill="#7882a8" d="M 329.5,155.5 C 330.795,159.267 331.461,163.267 331.5,167.5C 330.347,163.798 329.347,159.965 328.5,156C 328.728,155.601 329.062,155.435 329.5,155.5 Z"/></g>
<g><path style="opacity:1" fill="#727da4" d="M 368.5,166.5 C 368.198,169.373 367.531,172.039 366.5,174.5C 366.111,171.447 366.777,168.78 368.5,166.5 Z"/></g>
<g><path style="opacity:1" fill="#7783a7" d="M 125.5,167.5 C 125.425,170.206 125.092,172.873 124.5,175.5C 123.509,172.756 123.843,170.089 125.5,167.5 Z"/></g>
<g><path style="opacity:1" fill="#4c5b8c" d="M 382.5,169.5 C 382.5,171.167 382.5,172.833 382.5,174.5C 394.012,174.172 405.346,174.505 416.5,175.5C 404.495,175.667 392.495,175.5 380.5,175C 381.109,173.052 381.776,171.218 382.5,169.5 Z"/></g>
<g><path style="opacity:1" fill="#4c5c8c" d="M 331.5,168.5 C 332.738,170.214 333.405,172.214 333.5,174.5C 344.014,174.172 354.347,174.506 364.5,175.5C 353.833,175.5 343.167,175.5 332.5,175.5C 332.007,173.194 331.674,170.861 331.5,168.5 Z"/></g>
<g><path style="opacity:1" fill="#7782a7" d="M 42.5,175.5 C 47.7498,175.302 52.7498,175.969 57.5,177.5C 52.2502,177.698 47.2502,177.031 42.5,175.5 Z"/></g>
<g><path style="opacity:1" fill="#7580a6" d="M 92.5,175.5 C 86.395,176.996 80.0616,177.663 73.5,177.5C 79.605,176.004 85.9384,175.337 92.5,175.5 Z"/></g>
<g><path style="opacity:1" fill="#475789" d="M 522.5,193.5 C 522.5,193.167 522.5,192.833 522.5,192.5C 353.667,191.5 184.667,191.167 15.5,191.5C 15.5,192.833 15.5,194.167 15.5,195.5C 14.4702,198.95 13.1369,202.283 11.5,205.5C 12.6586,200.532 13.6586,195.532 14.5,190.5C 184.167,190.5 353.833,190.5 523.5,190.5C 523.737,191.791 523.404,192.791 522.5,193.5 Z"/></g>
<g><path style="opacity:1" fill="#0e2365" d="M 522.5,192.5 C 353.833,192.5 185.167,192.5 16.5,192.5C 16.7373,193.791 16.404,194.791 15.5,195.5C 15.5,194.167 15.5,192.833 15.5,191.5C 184.667,191.167 353.667,191.5 522.5,192.5 Z"/></g>
<g><path style="opacity:1" fill="#192e6c" d="M 522.5,192.5 C 522.5,192.833 522.5,193.167 522.5,193.5C 521.325,200.531 519.992,207.531 518.5,214.5C 516.883,217.189 515.883,220.189 515.5,223.5C 346.167,223.5 176.833,223.5 7.5,223.5C 8.5186,217.426 9.85193,211.426 11.5,205.5C 13.1369,202.283 14.4702,198.95 15.5,195.5C 16.404,194.791 16.7373,193.791 16.5,192.5C 185.167,192.5 353.833,192.5 522.5,192.5 Z"/></g>
<g><path style="opacity:1" fill="#6b77a0" d="M 518.5,214.5 C 518.067,217.166 517.567,219.832 517,222.5C 516.617,223.056 516.117,223.389 515.5,223.5C 515.883,220.189 516.883,217.189 518.5,214.5 Z"/></g>
</svg>
