<?xml version="1.0" encoding="UTF-8"?>
<!DOCTYPE svg PUBLIC "-//W3C//DTD SVG 1.1//EN" "http://www.w3.org/Graphics/SVG/1.1/DTD/svg11.dtd">
<svg xmlns="http://www.w3.org/2000/svg" version="1.1" width="712px" height="115px" style="shape-rendering:geometricPrecision; text-rendering:geometricPrecision; image-rendering:optimizeQuality; fill-rule:evenodd; clip-rule:evenodd" xmlns:xlink="http://www.w3.org/1999/xlink">
<g><path style="opacity:0.807" fill="#607a7e" d="M 12.5,-0.5 C 51.1667,-0.5 89.8333,-0.5 128.5,-0.5C 128.598,1.55292 127.931,3.21959 126.5,4.5C 126.5,3.16667 126.5,1.83333 126.5,0.5C 89.1652,0.333347 51.8318,0.500013 14.5,1C 15.2524,1.67076 15.5858,2.5041 15.5,3.5C 13.7376,2.73769 12.7376,1.40435 12.5,-0.5 Z"/></g>
<g><path style="opacity:0.828" fill="#557579" d="M 156.5,0.5 C 156.5,0.166667 156.5,-0.166667 156.5,-0.5C 182.833,-0.5 209.167,-0.5 235.5,-0.5C 235.828,10.0135 235.494,20.3468 234.5,30.5C 234.5,22.5 234.5,14.5 234.5,6.5C 234.5,5.5 234.5,4.5 234.5,3.5C 234.5,2.5 234.5,1.5 234.5,0.5C 208.5,0.5 182.5,0.5 156.5,0.5 Z"/></g>
<g><path style="opacity:0.805" fill="#587578" d="M 266.5,-0.5 C 302.5,-0.5 338.5,-0.5 374.5,-0.5C 374.737,0.791047 374.404,1.79105 373.5,2.5C 356.346,1.16711 338.846,0.50044 321,0.5C 303.33,0.500054 285.83,0.833387 268.5,1.5C 266.051,2.93998 264.385,4.93998 263.5,7.5C 263.5,6.16667 263.5,4.83333 263.5,3.5C 264.833,2.83333 265.833,1.83333 266.5,0.5C 266.5,0.166667 266.5,-0.166667 266.5,-0.5 Z"/></g>
<g><path style="opacity:0.845" fill="#6a8587" d="M 386.5,0.5 C 386.5,0.166667 386.5,-0.166667 386.5,-0.5C 398.5,-0.5 410.5,-0.5 422.5,-0.5C 422.784,1.41467 422.451,3.08134 421.5,4.5C 421.167,4.5 420.833,4.5 420.5,4.5C 420.5,3.16667 420.5,1.83333 420.5,0.5C 409.167,0.5 397.833,0.5 386.5,0.5 Z"/></g>
<g><path style="opacity:0.813" fill="#5a7579" d="M 485.5,0.5 C 485.5,0.166667 485.5,-0.166667 485.5,-0.5C 523.167,-0.5 560.833,-0.5 598.5,-0.5C 598.598,1.55292 597.931,3.21959 596.5,4.5C 596.5,3.5 596.5,2.5 596.5,1.5C 560.24,0.500525 523.24,0.167192 485.5,0.5 Z"/></g>
<g><path style="opacity:0.81" fill="#587678" d="M 609.5,-0.5 C 643.5,-0.5 677.5,-0.5 711.5,-0.5C 711.5,0.5 711.5,1.5 711.5,2.5C 711.167,2.5 710.833,2.5 710.5,2.5C 694.347,1.16716 677.847,0.500496 661,0.5C 644.33,0.500061 627.83,0.833394 611.5,1.5C 610.609,2.10978 609.609,2.44312 608.5,2.5C 608.833,1.83333 609.167,1.16667 609.5,0.5C 609.5,0.166667 609.5,-0.166667 609.5,-0.5 Z"/></g>
<g><path style="opacity:1" fill="#2b5357" d="M 126.5,4.5 C 123.739,8.35042 120.739,12.0171 117.5,15.5C 118.368,12.1574 119.368,8.82403 120.5,5.5C 122.046,4.31599 123.713,3.31599 125.5,2.5C 122.572,1.51592 119.572,1.18259 116.5,1.5C 85.5,1.5 54.5,1.5 23.5,1.5C 21.076,1.19244 18.7427,1.52577 16.5,2.5C 16.8627,3.18346 17.1961,3.85013 17.5,4.5C 16.8333,4.5 16.1667,4.5 15.5,4.5C 15.5,4.16667 15.5,3.83333 15.5,3.5C 15.5858,2.5041 15.2524,1.67076 14.5,1C 51.8318,0.500013 89.1652,0.333347 126.5,0.5C 126.5,1.83333 126.5,3.16667 126.5,4.5 Z"/></g>
<g><path style="opacity:1" fill="#265054" d="M 268.5,1.5 C 285.83,0.833387 303.33,0.500054 321,0.5C 338.846,0.50044 356.346,1.16711 373.5,2.5C 373.672,3.49162 373.338,4.15829 372.5,4.5C 372.5,3.5 372.5,2.5 372.5,1.5C 337.833,1.5 303.167,1.5 268.5,1.5 Z"/></g>
<g><path style="opacity:1" fill="#2a5256" d="M 485.5,0.5 C 523.24,0.167192 560.24,0.500525 596.5,1.5C 561.167,1.5 525.833,1.5 490.5,1.5C 489.957,1.55999 489.624,1.89333 489.5,2.5C 490.95,3.84983 491.617,5.5165 491.5,7.5C 491.827,9.48777 492.16,11.4878 492.5,13.5C 492.36,15.0296 491.693,16.0296 490.5,16.5C 490.665,13.1501 490.498,9.81677 490,6.5C 487.898,4.90525 486.398,2.90525 485.5,0.5 Z"/></g>
<g><path style="opacity:1" fill="#1c4a51" d="M 156.5,0.5 C 182.5,0.5 208.5,0.5 234.5,0.5C 234.5,1.5 234.5,2.5 234.5,3.5C 209.971,3.04109 185.305,3.04109 160.5,3.5C 159.432,2.56552 158.099,2.23219 156.5,2.5C 156.843,4.48324 156.176,5.81658 154.5,6.5C 154.971,4.42136 155.637,2.42136 156.5,0.5 Z"/></g>
<g><path style="opacity:1" fill="#1c4750" d="M 268.5,1.5 C 303.167,1.5 337.833,1.5 372.5,1.5C 372.5,2.5 372.5,3.5 372.5,4.5C 369.366,10.5904 365.366,16.0904 360.5,21C 338.663,21.168 316.996,21.668 295.5,22.5C 295.5,23.1667 295.5,23.8333 295.5,24.5C 294.883,24.6107 294.383,24.944 294,25.5C 293.505,27.4727 293.338,29.4727 293.5,31.5C 292.612,34.0545 292.279,36.7212 292.5,39.5C 290.656,41.2789 289.99,43.6122 290.5,46.5C 290.5,46.8333 290.5,47.1667 290.5,47.5C 288.886,54.6572 287.552,61.9905 286.5,69.5C 284.692,70.9179 284.025,72.9179 284.5,75.5C 284.5,76.1667 284.5,76.8333 284.5,77.5C 282.133,80.7561 280.8,84.5895 280.5,89C 280.404,91.3747 280.904,93.5413 282,95.5C 282.5,95 283,94.5 283.5,94C 296.007,93.8308 308.34,93.3308 320.5,92.5C 320.5,92.1667 320.5,91.8333 320.5,91.5C 321.117,91.3893 321.617,91.056 322,90.5C 322.548,86.8296 323.048,83.1629 323.5,79.5C 323.942,75.8455 324.276,72.1788 324.5,68.5C 319.906,68.1349 315.573,67.1349 311.5,65.5C 311.833,62.8333 312.167,60.1667 312.5,57.5C 314.13,54.4701 315.13,51.1368 315.5,47.5C 331.5,47.5 347.5,47.5 363.5,47.5C 363.384,50.8599 363.051,54.1933 362.5,57.5C 362.26,61.6061 361.593,65.6061 360.5,69.5C 359.475,72.9736 358.808,76.6403 358.5,80.5C 356.499,90.8386 354.499,101.172 352.5,111.5C 351.391,111.557 350.391,111.89 349.5,112.5C 346.803,110.559 343.803,109.059 340.5,108C 310.5,107.333 280.5,107.333 250.5,108C 253.276,109.779 252.943,110.779 249.5,111C 279.833,111.333 310.167,111.667 340.5,112C 342.937,113.375 345.603,113.875 348.5,113.5C 348.5,113.833 348.5,114.167 348.5,114.5C 313.167,114.5 277.833,114.5 242.5,114.5C 243.174,108.138 244.174,101.804 245.5,95.5C 245.517,93.4352 245.85,91.4352 246.5,89.5C 248.177,85.4552 248.844,81.1219 248.5,76.5C 249.222,76.0825 249.722,75.4158 250,74.5C 250.497,71.854 250.664,69.1873 250.5,66.5C 250.216,64.5853 250.549,62.9187 251.5,61.5C 254.018,56.939 255.018,51.939 254.5,46.5C 257.927,42.573 259.26,37.9063 258.5,32.5C 259.341,30.6208 259.675,28.6208 259.5,26.5C 260.117,26.3893 260.617,26.056 261,25.5C 261.548,21.8296 262.048,18.1629 262.5,14.5C 262.198,11.9407 262.532,9.60737 263.5,7.5C 264.385,4.93998 266.051,2.93998 268.5,1.5 Z"/></g>
<g><path style="opacity:1" fill="#1c4a50" d="M 490.5,1.5 C 525.833,1.5 561.167,1.5 596.5,1.5C 596.5,2.5 596.5,3.5 596.5,4.5C 595.833,5.83333 595.167,7.16667 594.5,8.5C 593.778,9.55114 592.778,10.2178 591.5,10.5C 590.194,9.53261 589.527,8.19928 589.5,6.5C 591.167,6.5 592.833,6.5 594.5,6.5C 594.427,3.05037 592.594,1.71704 589,2.5C 586.127,2.44555 583.46,3.11222 581,4.5C 580.667,3.83333 580.333,3.16667 580,2.5C 550.603,3.36168 521.603,3.69501 493,3.5C 492.005,2.93406 491.172,2.26739 490.5,1.5 Z"/></g>
<g><path style="opacity:0.212" fill="#b8cfd2" d="M 266.5,0.5 C 265.833,1.83333 264.833,2.83333 263.5,3.5C 263.5,1.5 264.5,0.5 266.5,0.5 Z"/></g>
<g><path style="opacity:0.314" fill="#bbd0d2" d="M 609.5,0.5 C 609.167,1.16667 608.833,1.83333 608.5,2.5C 607.5,2.83333 606.833,3.5 606.5,4.5C 606.167,4.5 605.833,4.5 605.5,4.5C 605.833,2.16667 607.167,0.833333 609.5,0.5 Z"/></g>
<g><path style="opacity:1" fill="#1d4750" d="M 160.5,3.5 C 159.351,3.79106 158.684,4.62439 158.5,6C 158.833,6.83333 159.167,7.66667 159.5,8.5C 171.678,7.18634 184.011,6.51967 196.5,6.5C 209.374,6.85763 222.04,6.85763 234.5,6.5C 234.5,14.5 234.5,22.5 234.5,30.5C 234.5,44.5 234.5,58.5 234.5,72.5C 234.5,86.1667 234.5,99.8333 234.5,113.5C 223.5,113.5 212.5,113.5 201.5,113.5C 201.827,103.319 201.494,93.3194 200.5,83.5C 187.167,83.5 173.833,83.5 160.5,83.5C 159.167,83.5 157.833,83.5 156.5,83.5C 152.676,93.807 149.009,104.14 145.5,114.5C 134.167,114.5 122.833,114.5 111.5,114.5C 112.167,111.167 112.833,107.833 113.5,104.5C 117.52,98.452 120.187,91.7853 121.5,84.5C 123.821,82.9103 124.821,80.5769 124.5,77.5C 127.181,74.8082 128.514,71.4748 128.5,67.5C 128.5,67.1667 128.5,66.8333 128.5,66.5C 130.104,65.713 130.771,64.3797 130.5,62.5C 132.723,59.8557 134.389,56.8557 135.5,53.5C 135.433,52.0413 135.766,50.7079 136.5,49.5C 139.987,41.6486 143.487,33.6486 147,25.5C 147.977,23.26 148.477,20.9267 148.5,18.5C 148.5,18.1667 148.5,17.8333 148.5,17.5C 151.234,14.2112 153.234,10.5445 154.5,6.5C 156.176,5.81658 156.843,4.48324 156.5,2.5C 158.099,2.23219 159.432,2.56552 160.5,3.5 Z M 200.5,23.5 C 200.5,35.5 200.5,47.5 200.5,59.5C 189.813,59.832 179.146,59.4987 168.5,58.5C 169.801,55.5729 170.801,52.5729 171.5,49.5C 173.02,47.1098 174.02,44.4432 174.5,41.5C 177.6,35.8789 179.933,29.8789 181.5,23.5C 187.833,23.5 194.167,23.5 200.5,23.5 Z"/></g>
<g><path style="opacity:1" fill="#1e4350" d="M 234.5,3.5 C 234.5,4.5 234.5,5.5 234.5,6.5C 222.04,6.85763 209.374,6.85763 196.5,6.5C 184.011,6.51967 171.678,7.18634 159.5,8.5C 159.167,7.66667 158.833,6.83333 158.5,6C 158.684,4.62439 159.351,3.79106 160.5,3.5C 185.305,3.04109 209.971,3.04109 234.5,3.5 Z"/></g>
<g><path style="opacity:1" fill="#1d4350" d="M 354.5,2.5 C 357.879,2.67819 361.045,2.67819 364,2.5C 364.667,5.16667 365.333,5.16667 366,2.5C 366.667,5.16667 367.333,5.16667 368,2.5C 368.483,3.44802 368.649,4.44802 368.5,5.5C 339.515,6.43229 310.515,6.76563 281.5,6.5C 281.5,5.5 281.5,4.5 281.5,3.5C 306.006,3.83098 330.339,3.49765 354.5,2.5 Z"/></g>
<g><path style="opacity:0.169" fill="#b8cacc" d="M 384.5,-0.5 C 385.167,-0.5 385.833,-0.5 386.5,-0.5C 386.5,-0.166667 386.5,0.166667 386.5,0.5C 385.596,1.20895 385.263,2.20895 385.5,3.5C 384.833,4.5 384.167,5.5 383.5,6.5C 383.448,4.09709 383.781,1.76375 384.5,-0.5 Z"/></g>
<g><path style="opacity:1" fill="#1d4350" d="M 701.5,1.5 C 702.5,1.5 703.5,1.5 704.5,1.5C 704.5,3.16667 704.5,4.83333 704.5,6.5C 678.498,6.66664 652.498,6.49997 626.5,6C 627.729,4.47079 629.229,3.30413 631,2.5C 644.947,2.97233 659.114,3.30566 673.5,3.5C 682.5,3.33333 691.5,3.16667 700.5,3C 701.056,2.61742 701.389,2.11742 701.5,1.5 Z"/></g>
<g><path style="opacity:1" fill="#244d52" d="M 611.5,1.5 C 627.83,0.833394 644.33,0.500061 661,0.5C 677.847,0.500496 694.347,1.16716 710.5,2.5C 708.834,5.82818 707.168,9.16151 705.5,12.5C 702.416,15.0793 699.416,17.9126 696.5,21C 695.207,21.49 693.873,21.6567 692.5,21.5C 695.677,19.8128 697.51,17.1461 698,13.5C 701.198,12.6722 703.698,10.5055 705.5,7C 705.272,6.60123 704.938,6.43456 704.5,6.5C 704.5,4.83333 704.5,3.16667 704.5,1.5C 703.5,1.5 702.5,1.5 701.5,1.5C 671.5,1.5 641.5,1.5 611.5,1.5 Z"/></g>
<g><path style="opacity:0.565" fill="#a5bac0" d="M 155.5,-0.5 C 155.833,-0.5 156.167,-0.5 156.5,-0.5C 156.5,-0.166667 156.5,0.166667 156.5,0.5C 155.637,2.42136 154.971,4.42136 154.5,6.5C 153.234,10.5445 151.234,14.2112 148.5,17.5C 150.443,11.3376 152.776,5.3376 155.5,-0.5 Z"/></g>
<g><path style="opacity:1" fill="#1b464f" d="M 386.5,0.5 C 397.833,0.5 409.167,0.5 420.5,0.5C 420.5,1.83333 420.5,3.16667 420.5,4.5C 419.454,7.72778 418.788,11.0611 418.5,14.5C 417.232,16.9052 416.565,19.5718 416.5,22.5C 416.5,23.5 416.5,24.5 416.5,25.5C 414.763,29.5423 413.763,33.8757 413.5,38.5C 413.5,38.8333 413.5,39.1667 413.5,39.5C 411.96,41.8383 411.294,44.5049 411.5,47.5C 409.807,54.762 408.473,62.0953 407.5,69.5C 406.076,71.5145 405.41,73.8478 405.5,76.5C 404.833,80.5 404.167,84.5 403.5,88.5C 402.566,89.5676 402.232,90.901 402.5,92.5C 422.66,93.4972 442.993,93.8305 463.5,93.5C 463.5,94.5 463.5,95.5 463.5,96.5C 463.5,97.8333 463.5,99.1667 463.5,100.5C 461.837,102.438 461.171,104.772 461.5,107.5C 461.5,108.167 461.5,108.833 461.5,109.5C 460.566,110.568 460.232,111.901 460.5,113.5C 428.167,113.5 395.833,113.5 363.5,113.5C 363.5,112.5 363.5,111.5 363.5,110.5C 364.222,110.082 364.722,109.416 365,108.5C 365.497,105.854 365.664,103.187 365.5,100.5C 366.434,99.4324 366.768,98.099 366.5,96.5C 368.23,92.1167 369.23,87.4501 369.5,82.5C 369.5,81.8333 369.5,81.1667 369.5,80.5C 370.222,80.0825 370.722,79.4158 371,78.5C 371.497,75.854 371.664,73.1873 371.5,70.5C 372.434,69.4324 372.768,68.099 372.5,66.5C 372.5,66.1667 372.5,65.8333 372.5,65.5C 374.04,63.1617 374.706,60.4951 374.5,57.5C 374.5,56.8333 374.5,56.1667 374.5,55.5C 376.451,49.0773 377.785,42.4107 378.5,35.5C 380.04,33.1617 380.706,30.4951 380.5,27.5C 380.674,25.139 381.007,22.8056 381.5,20.5C 382.117,20.3893 382.617,20.056 383,19.5C 383.118,16.6287 383.784,13.962 385,11.5C 385.497,8.85397 385.664,6.1873 385.5,3.5C 385.263,2.20895 385.596,1.20895 386.5,0.5 Z"/></g>
<g><path style="opacity:0.133" fill="#c5d7d8" d="M 598.5,-0.5 C 598.833,-0.5 599.167,-0.5 599.5,-0.5C 599.163,3.83596 597.496,7.50263 594.5,10.5C 594.5,9.83333 594.5,9.16667 594.5,8.5C 595.167,7.16667 595.833,5.83333 596.5,4.5C 597.931,3.21959 598.598,1.55292 598.5,-0.5 Z"/></g>
<g><path style="opacity:1" fill="#1b454f" d="M 611.5,1.5 C 641.5,1.5 671.5,1.5 701.5,1.5C 701.389,2.11742 701.056,2.61742 700.5,3C 691.5,3.16667 682.5,3.33333 673.5,3.5C 659.114,3.30566 644.947,2.97233 631,2.5C 629.229,3.30413 627.729,4.47079 626.5,6C 652.498,6.49997 678.498,6.66664 704.5,6.5C 704.938,6.43456 705.272,6.60123 705.5,7C 703.698,10.5055 701.198,12.6722 698,13.5C 697.51,17.1461 695.677,19.8128 692.5,21.5C 674.326,21.1699 656.326,21.5032 638.5,22.5C 637.833,22.5 637.5,22.8333 637.5,23.5C 636.778,23.0825 636.278,22.4158 636,21.5C 634.297,24.2623 634.13,27.0956 635.5,30C 634.809,34.2396 633.809,38.4062 632.5,42.5C 632.551,44.0998 632.884,45.5998 633.5,47C 653.167,47.3333 672.833,47.6667 692.5,48C 693.5,48.3333 694.5,48.6667 695.5,49C 695.056,50.5333 694.723,52.0333 694.5,53.5C 695.689,54.4287 697.022,54.762 698.5,54.5C 698.5,57.1667 698.5,59.8333 698.5,62.5C 697.164,70.1884 695.831,77.8551 694.5,85.5C 693.076,87.5145 692.41,89.8478 692.5,92.5C 691.735,95.0961 691.401,97.7628 691.5,100.5C 689.882,103.171 689.215,106.171 689.5,109.5C 688.441,111.555 686.775,112.889 684.5,113.5C 655.5,113.5 626.5,113.5 597.5,113.5C 621.486,111.838 645.82,110.838 670.5,110.5C 670.833,109.833 671.167,109.167 671.5,108.5C 646.84,107.334 622.173,107.167 597.5,108C 595.365,109.556 595.032,111.389 596.5,113.5C 592.833,113.5 589.167,113.5 585.5,113.5C 585.5,111.833 585.5,110.167 585.5,108.5C 585.833,107.833 586.167,107.167 586.5,106.5C 587.863,102.508 588.863,98.3413 589.5,94C 612.855,94.1587 635.855,93.3254 658.5,91.5C 658.5,90.1667 658.5,88.8333 658.5,87.5C 660.161,84.5546 661.328,81.2213 662,77.5C 662.805,74.3035 662.638,71.3035 661.5,68.5C 641.337,67.6681 621.004,67.1681 600.5,67C 598.313,65.1485 596.98,62.8152 596.5,60C 599.855,48.4006 601.855,36.5672 602.5,24.5C 603.341,22.6208 603.675,20.6208 603.5,18.5C 604.117,18.3893 604.617,18.056 605,17.5C 605.497,14.854 605.664,12.1873 605.5,9.5C 606.301,7.95819 606.634,6.29152 606.5,4.5C 606.833,3.5 607.5,2.83333 608.5,2.5C 609.609,2.44312 610.609,2.10978 611.5,1.5 Z"/></g>
<g><path style="opacity:1" fill="#1f4751" d="M 23.5,1.5 C 24.531,2.24853 25.6976,2.9152 27,3.5C 54.8187,2.70445 81.8187,2.70445 108,3.5C 110.939,2.87191 113.772,2.20524 116.5,1.5C 119.572,1.18259 122.572,1.51592 125.5,2.5C 123.713,3.31599 122.046,4.31599 120.5,5.5C 119.368,8.82403 118.368,12.1574 117.5,15.5C 115.833,17.5 114.167,19.5 112.5,21.5C 92.6596,21.1696 72.9929,21.5029 53.5,22.5C 52.8826,22.6107 52.3826,22.944 52,23.5C 51.4518,27.1704 50.9518,30.8371 50.5,34.5C 50.5,36.1667 50.5,37.8333 50.5,39.5C 49.5318,41.6074 49.1984,43.9407 49.5,46.5C 66.3251,47.4966 83.3251,47.8299 100.5,47.5C 100.5,48.5 100.5,49.5 100.5,50.5C 97.5211,56.6601 93.5211,62.1601 88.5,67C 73.6609,67.1687 58.9943,67.6687 44.5,68.5C 43.6082,73.5164 42.6082,78.5164 41.5,83.5C 40.8826,83.6107 40.3826,83.944 40,84.5C 39.502,87.4816 39.3354,90.4816 39.5,93.5C 59.8333,93.5 80.1667,93.5 100.5,93.5C 100.586,94.4959 100.252,95.3292 99.5,96C 20.8333,97 20.8333,98 99.5,99C 99,99.5 98.5,100 98,100.5C 84.5221,100.557 71.1888,100.224 58,99.5C 52.2488,100.31 46.4155,100.81 40.5,101C 41.1667,101.333 41.8333,101.667 42.5,102C 32.1667,102.333 21.8333,102.667 11.5,103C 12,103.5 12.5,104 13,104.5C 41.6995,104.434 70.6995,104.434 100,104.5C 100.333,103.833 100.667,103.167 101,102.5C 101.18,104.488 101.014,106.488 100.5,108.5C 71.2929,109.086 41.7929,109.419 12,109.5C 8.95156,107.488 5.95156,107.821 3,110.5C 2.61742,109.944 2.11742,109.611 1.5,109.5C 2.30071,107.958 2.63404,106.292 2.5,104.5C 2.5,103.167 2.5,101.833 2.5,100.5C 3.11742,100.389 3.61742,100.056 4,99.5C 4.49885,95.5138 4.66551,91.5138 4.5,87.5C 5.7682,85.0948 6.43487,82.4282 6.5,79.5C 9.34343,75.6779 12.0101,71.6779 14.5,67.5C 17.5,65.1667 20.1667,62.5 22.5,59.5C 25.5819,57.6281 28.2486,55.2948 30.5,52.5C 33.1979,52.1551 35.1979,50.8218 36.5,48.5C 37.1667,48.5 37.8333,48.5 38.5,48.5C 39.4916,48.6716 40.1583,48.3382 40.5,47.5C 41.404,46.791 41.7373,45.791 41.5,44.5C 32.8333,44.5 24.1667,44.5 15.5,44.5C 15.8333,41.8333 16.1667,39.1667 16.5,36.5C 16.5,33.8333 16.5,31.1667 16.5,28.5C 16.3253,26.3792 16.6586,24.3792 17.5,22.5C 18.1174,22.3893 18.6174,22.056 19,21.5C 19.6667,16.5 19.6667,11.5 19,6.5C 18.2828,5.9558 17.7828,5.28913 17.5,4.5C 17.1961,3.85013 16.8627,3.18346 16.5,2.5C 18.7427,1.52577 21.076,1.19244 23.5,1.5 Z"/></g>
<g><path style="opacity:1" fill="#19494f" d="M 23.5,1.5 C 54.5,1.5 85.5,1.5 116.5,1.5C 113.772,2.20524 110.939,2.87191 108,3.5C 81.8187,2.70445 54.8187,2.70445 27,3.5C 25.6976,2.9152 24.531,2.24853 23.5,1.5 Z"/></g>
<g><path style="opacity:0.373" fill="#97afb4" d="M 374.5,-0.5 C 374.833,-0.5 375.167,-0.5 375.5,-0.5C 375.611,0.117425 375.944,0.617425 376.5,1C 373.082,9.09207 368.082,16.0921 361.5,22C 360.207,22.49 358.873,22.6567 357.5,22.5C 336.833,22.5 316.167,22.5 295.5,22.5C 316.996,21.668 338.663,21.168 360.5,21C 365.366,16.0904 369.366,10.5904 372.5,4.5C 373.338,4.15829 373.672,3.49162 373.5,2.5C 374.404,1.79105 374.737,0.791047 374.5,-0.5 Z"/></g>
<g><path style="opacity:0.341" fill="#a6bcc4" d="M 420.5,4.5 C 420.833,4.5 421.167,4.5 421.5,4.5C 421.247,8.03995 420.581,11.3733 419.5,14.5C 419.167,14.5 418.833,14.5 418.5,14.5C 418.788,11.0611 419.454,7.72778 420.5,4.5 Z"/></g>
<g><path style="opacity:0.318" fill="#a2b2b7" d="M 605.5,4.5 C 605.833,4.5 606.167,4.5 606.5,4.5C 606.634,6.29152 606.301,7.95819 605.5,9.5C 605.167,9.5 604.833,9.5 604.5,9.5C 604.366,7.70848 604.699,6.04181 605.5,4.5 Z"/></g>
<g><path style="opacity:0.333" fill="#89a3a8" d="M 15.5,4.5 C 16.1667,4.5 16.8333,4.5 17.5,4.5C 17.7828,5.28913 18.2828,5.9558 19,6.5C 19.6667,11.5 19.6667,16.5 19,21.5C 18.6174,22.056 18.1174,22.3893 17.5,22.5C 19.3835,16.1164 18.7168,10.1164 15.5,4.5 Z"/></g>
<g><path style="opacity:0.424" fill="#9fb5b9" d="M 483.5,-0.5 C 484.167,-0.5 484.833,-0.5 485.5,-0.5C 485.5,-0.166667 485.5,0.166667 485.5,0.5C 486.398,2.90525 487.898,4.90525 490,6.5C 490.498,9.81677 490.665,13.1501 490.5,16.5C 490.784,18.4147 490.451,20.0813 489.5,21.5C 489.167,21.5 488.833,21.5 488.5,21.5C 489.331,17.5239 489.497,13.5239 489,9.5C 486.909,6.25954 485.076,2.9262 483.5,-0.5 Z"/></g>
<g><path style="opacity:1" fill="#698488" d="M 385.5,3.5 C 385.664,6.1873 385.497,8.85397 385,11.5C 383.784,13.962 383.118,16.6287 383,19.5C 382.617,20.056 382.117,20.3893 381.5,20.5C 381.5,19.1667 381.5,17.8333 381.5,16.5C 381.753,12.9601 382.419,9.62672 383.5,6.5C 384.167,5.5 384.833,4.5 385.5,3.5 Z"/></g>
<g><path style="opacity:1" fill="#204551" d="M 490.5,1.5 C 491.172,2.26739 492.005,2.93406 493,3.5C 521.603,3.69501 550.603,3.36168 580,2.5C 580.333,3.16667 580.667,3.83333 581,4.5C 583.46,3.11222 586.127,2.44555 589,2.5C 592.594,1.71704 594.427,3.05037 594.5,6.5C 592.833,6.5 591.167,6.5 589.5,6.5C 589.527,8.19928 590.194,9.53261 591.5,10.5C 591.5,10.8333 591.5,11.1667 591.5,11.5C 587.757,12.9907 583.924,14.324 580,15.5C 565.209,15.4476 550.376,15.4476 535.5,15.5C 533.058,14.9639 530.725,14.1306 528.5,13C 517.505,12.5002 506.505,12.3335 495.5,12.5C 495.649,13.552 495.483,14.552 495,15.5C 494.598,14.1279 494.098,12.7946 493.5,11.5C 524.161,10.6668 554.828,10.1668 585.5,10C 586.328,9.08529 587.328,8.41862 588.5,8C 588,7.5 587.5,7 587,6.5C 555.266,7.49479 523.433,7.82812 491.5,7.5C 491.617,5.5165 490.95,3.84983 489.5,2.5C 489.624,1.89333 489.957,1.55999 490.5,1.5 Z"/></g>
<g><path style="opacity:0.157" fill="#a8c3c6" d="M 710.5,2.5 C 710.833,2.5 711.167,2.5 711.5,2.5C 711.5,3.5 711.5,4.5 711.5,5.5C 709.737,8.01955 707.737,10.3529 705.5,12.5C 707.168,9.16151 708.834,5.82818 710.5,2.5 Z"/></g>
<g><path style="opacity:0.192" fill="#abbfc6" d="M 126.5,4.5 C 123.737,11.9354 119.071,17.9354 112.5,22.5C 112.5,22.1667 112.5,21.8333 112.5,21.5C 114.167,19.5 115.833,17.5 117.5,15.5C 120.739,12.0171 123.739,8.35042 126.5,4.5 Z"/></g>
<g><path style="opacity:0.303" fill="#9eb4b9" d="M 235.5,-0.5 C 235.833,-0.5 236.167,-0.5 236.5,-0.5C 236.619,13.084 236.619,26.7507 236.5,40.5C 235.833,51.1667 235.167,61.8333 234.5,72.5C 234.5,58.5 234.5,44.5 234.5,30.5C 235.494,20.3468 235.828,10.0135 235.5,-0.5 Z"/></g>
<g><path style="opacity:1" fill="#1f4751" d="M 591.5,11.5 C 590.167,13.8333 588.833,16.1667 587.5,18.5C 587.5,19.1667 587.167,19.5 586.5,19.5C 585.244,19.4614 584.244,19.9614 583.5,21C 563.996,21.1682 544.662,21.6682 525.5,22.5C 523.77,26.1842 522.77,30.1842 522.5,34.5C 521.011,38.2357 520.344,42.2357 520.5,46.5C 537.338,47.1667 554.338,47.8333 571.5,48.5C 570.273,49.5904 569.44,50.9238 569,52.5C 568.346,51.3044 567.846,51.3044 567.5,52.5C 568.127,53.4168 568.461,54.4168 568.5,55.5C 565.633,59.9094 562.299,63.9094 558.5,67.5C 544.163,67.3334 529.829,67.5001 515.5,68C 514.62,69.3561 514.286,70.8561 514.5,72.5C 514.5,72.8333 514.5,73.1667 514.5,73.5C 513.076,75.5145 512.41,77.8478 512.5,80.5C 511.979,84.4809 511.646,88.4809 511.5,92.5C 510.683,90.0314 510.183,87.3647 510,84.5C 508.633,85.5243 507.8,85.0243 507.5,83C 508.063,80.2734 508.73,77.6067 509.5,75C 508.929,73.7949 508.262,72.6283 507.5,71.5C 506.391,72.5896 505.391,72.5896 504.5,71.5C 506.529,69.137 508.862,67.137 511.5,65.5C 509.262,64.6168 507.095,64.9501 505,66.5C 504.333,64.1667 504.333,61.8333 505,59.5C 505.333,59.8333 505.667,60.1667 506,60.5C 506.483,59.552 506.649,58.552 506.5,57.5C 505.178,57.33 504.011,57.6634 503,58.5C 501.721,66.3749 497.221,69.7083 489.5,68.5C 490.711,67.2798 490.711,66.1131 489.5,65C 491.407,63.9308 492.741,62.4308 493.5,60.5C 497.277,56.1208 501.61,52.4542 506.5,49.5C 507.167,49.1667 507.833,48.8333 508.5,48.5C 509.167,48.5 509.833,48.5 510.5,48.5C 512.176,47.8166 512.843,46.4832 512.5,44.5C 503.833,44.5 495.167,44.5 486.5,44.5C 486.704,41.4824 487.037,38.4824 487.5,35.5C 487.5,34.1667 487.5,32.8333 487.5,31.5C 488.117,31.3893 488.617,31.056 489,30.5C 489.498,27.5184 489.665,24.5184 489.5,21.5C 490.451,20.0813 490.784,18.4147 490.5,16.5C 491.693,16.0296 492.36,15.0296 492.5,13.5C 492.16,11.4878 491.827,9.48777 491.5,7.5C 523.433,7.82812 555.266,7.49479 587,6.5C 587.5,7 588,7.5 588.5,8C 587.328,8.41862 586.328,9.08529 585.5,10C 554.828,10.1668 524.161,10.6668 493.5,11.5C 494.098,12.7946 494.598,14.1279 495,15.5C 495.483,14.552 495.649,13.552 495.5,12.5C 506.505,12.3335 517.505,12.5002 528.5,13C 530.725,14.1306 533.058,14.9639 535.5,15.5C 550.376,15.4476 565.209,15.4476 580,15.5C 583.924,14.324 587.757,12.9907 591.5,11.5 Z"/></g>
<g><path style="opacity:0.267" fill="#aabcc1" d="M 263.5,3.5 C 263.5,4.83333 263.5,6.16667 263.5,7.5C 262.532,9.60737 262.198,11.9407 262.5,14.5C 261.833,15.1667 261.167,15.8333 260.5,16.5C 260.763,11.8757 261.763,7.54233 263.5,3.5 Z"/></g>
<g><path style="opacity:0.125" fill="#91a7ad" d="M 705.5,12.5 C 703.913,15.2682 702.08,17.9348 700,20.5C 699.184,21.8228 698.017,22.4894 696.5,22.5C 677.167,22.5 657.833,22.5 638.5,22.5C 656.326,21.5032 674.326,21.1699 692.5,21.5C 693.873,21.6567 695.207,21.49 696.5,21C 699.416,17.9126 702.416,15.0793 705.5,12.5 Z"/></g>
<g><path style="opacity:0.106" fill="#9db2b9" d="M 594.5,8.5 C 594.5,9.16667 594.5,9.83333 594.5,10.5C 592.883,13.7843 590.55,16.4509 587.5,18.5C 588.833,16.1667 590.167,13.8333 591.5,11.5C 591.5,11.1667 591.5,10.8333 591.5,10.5C 592.778,10.2178 593.778,9.55114 594.5,8.5 Z"/></g>
<g><path style="opacity:0.98" fill="#6d868b" d="M 604.5,9.5 C 604.833,9.5 605.167,9.5 605.5,9.5C 605.664,12.1873 605.497,14.854 605,17.5C 604.617,18.056 604.117,18.3893 603.5,18.5C 603.5,17.1667 603.5,15.8333 603.5,14.5C 603.216,12.5853 603.549,10.9187 604.5,9.5 Z"/></g>
<g><path style="opacity:0.051" fill="#d1dfe3" d="M 418.5,14.5 C 418.833,14.5 419.167,14.5 419.5,14.5C 419.419,19.4767 418.419,24.1434 416.5,28.5C 416.5,27.5 416.5,26.5 416.5,25.5C 416.5,24.5 416.5,23.5 416.5,22.5C 418.04,20.1617 418.706,17.4951 418.5,14.5 Z"/></g>
<g><path style="opacity:0.616" fill="#97adb3" d="M 112.5,21.5 C 112.5,21.8333 112.5,22.1667 112.5,22.5C 93.0957,22.7841 73.7624,23.7841 54.5,25.5C 54.1667,25.5 53.8333,25.5 53.5,25.5C 53.5,24.5 53.5,23.5 53.5,22.5C 72.9929,21.5029 92.6596,21.1696 112.5,21.5 Z"/></g>
<g><path style="opacity:0.584" fill="#768d95" d="M 418.5,14.5 C 418.706,17.4951 418.04,20.1617 416.5,22.5C 416.565,19.5718 417.232,16.9052 418.5,14.5 Z"/></g>
<g><path style="opacity:0.621" fill="#769096" d="M 586.5,19.5 C 584.964,22.0922 582.631,23.0922 579.5,22.5C 561.5,22.5 543.5,22.5 525.5,22.5C 544.662,21.6682 563.996,21.1682 583.5,21C 584.244,19.9614 585.244,19.4614 586.5,19.5 Z"/></g>
<g><path style="opacity:0.047" fill="#d1e5eb" d="M 295.5,22.5 C 316.167,22.5 336.833,22.5 357.5,22.5C 337.34,23.4972 317.007,23.8305 296.5,23.5C 295.609,30.0451 294.276,36.3784 292.5,42.5C 292.5,41.5 292.5,40.5 292.5,39.5C 292.279,36.7212 292.612,34.0545 293.5,31.5C 294.407,29.3432 295.073,27.0098 295.5,24.5C 295.5,23.8333 295.5,23.1667 295.5,22.5 Z"/></g>
<g><path style="opacity:0.061" fill="#ddf0f3" d="M 525.5,22.5 C 543.5,22.5 561.5,22.5 579.5,22.5C 561.598,23.1792 543.598,23.8458 525.5,24.5C 525.5,23.8333 525.5,23.1667 525.5,22.5 Z"/></g>
<g><path style="opacity:0.047" fill="#d8eaef" d="M 638.5,22.5 C 657.833,22.5 677.167,22.5 696.5,22.5C 677.674,23.497 658.674,23.8303 639.5,23.5C 639.737,24.791 639.404,25.791 638.5,26.5C 638.5,25.1667 638.5,23.8333 638.5,22.5 Z"/></g>
<g><path style="opacity:0.165" fill="#b4cbcc" d="M 381.5,16.5 C 381.5,17.8333 381.5,19.1667 381.5,20.5C 381.007,22.8056 380.674,25.139 380.5,27.5C 380.167,27.5 379.833,27.5 379.5,27.5C 379.646,23.6125 380.313,19.9458 381.5,16.5 Z"/></g>
<g><path style="opacity:0.271" fill="#a6babc" d="M 603.5,14.5 C 603.5,15.8333 603.5,17.1667 603.5,18.5C 603.675,20.6208 603.341,22.6208 602.5,24.5C 602.167,24.5 601.833,24.5 601.5,24.5C 601.753,20.9601 602.419,17.6267 603.5,14.5 Z"/></g>
<g><path style="opacity:1" fill="#48636a" d="M 53.5,22.5 C 53.5,23.5 53.5,24.5 53.5,25.5C 52.816,28.5917 51.816,31.5917 50.5,34.5C 50.9518,30.8371 51.4518,27.1704 52,23.5C 52.3826,22.944 52.8826,22.6107 53.5,22.5 Z"/></g>
<g><path style="opacity:0.851" fill="#5d7b7e" d="M 262.5,14.5 C 262.048,18.1629 261.548,21.8296 261,25.5C 260.617,26.056 260.117,26.3893 259.5,26.5C 259.5,25.1667 259.5,23.8333 259.5,22.5C 259.325,20.3792 259.659,18.3792 260.5,16.5C 261.167,15.8333 261.833,15.1667 262.5,14.5 Z"/></g>
<g><path style="opacity:0.898" fill="#587a82" d="M 295.5,24.5 C 295.073,27.0098 294.407,29.3432 293.5,31.5C 293.338,29.4727 293.505,27.4727 294,25.5C 294.383,24.944 294.883,24.6107 295.5,24.5 Z"/></g>
<g><path style="opacity:1" fill="#69848a" d="M 488.5,21.5 C 488.833,21.5 489.167,21.5 489.5,21.5C 489.665,24.5184 489.498,27.5184 489,30.5C 488.617,31.056 488.117,31.3893 487.5,31.5C 487.5,30.1667 487.5,28.8333 487.5,27.5C 487.325,25.3792 487.659,23.3792 488.5,21.5 Z"/></g>
<g><path style="opacity:0.129" fill="#bdcdd5" d="M 53.5,25.5 C 53.8333,25.5 54.1667,25.5 54.5,25.5C 53.5293,31.6995 52.196,37.6995 50.5,43.5C 50.5,42.1667 50.5,40.8333 50.5,39.5C 50.5,37.8333 50.5,36.1667 50.5,34.5C 51.816,31.5917 52.816,28.5917 53.5,25.5 Z"/></g>
<g><path style="opacity:0.808" fill="#7a9197" d="M 379.5,27.5 C 379.833,27.5 380.167,27.5 380.5,27.5C 380.706,30.4951 380.04,33.1617 378.5,35.5C 378.5,34.1667 378.5,32.8333 378.5,31.5C 378.232,29.901 378.566,28.5676 379.5,27.5 Z"/></g>
<g><path style="opacity:0.29" fill="#b2c6cf" d="M 181.5,22.5 C 188.022,22.1765 194.355,22.5098 200.5,23.5C 194.167,23.5 187.833,23.5 181.5,23.5C 179.933,29.8789 177.6,35.8789 174.5,41.5C 175.773,34.7155 178.107,28.3822 181.5,22.5 Z"/></g>
<g><path style="opacity:0.38" fill="#8fa5a8" d="M 259.5,22.5 C 259.5,23.8333 259.5,25.1667 259.5,26.5C 259.675,28.6208 259.341,30.6208 258.5,32.5C 258.167,32.5 257.833,32.5 257.5,32.5C 257.753,28.9601 258.419,25.6267 259.5,22.5 Z"/></g>
<g><path style="opacity:0.62" fill="#8ba1a7" d="M 148.5,18.5 C 148.477,20.9267 147.977,23.26 147,25.5C 143.487,33.6486 139.987,41.6486 136.5,49.5C 136.5,48.8333 136.5,48.1667 136.5,47.5C 139.739,37.4336 143.739,27.7669 148.5,18.5 Z"/></g>
<g><path style="opacity:0.275" fill="#a2b7bc" d="M 601.5,26.5 C 601.142,30.5092 600.642,34.5092 600,38.5C 599.617,39.056 599.117,39.3893 598.5,39.5C 598.882,34.9082 599.882,30.5749 601.5,26.5 Z"/></g>
<g><path style="opacity:0.647" fill="#9bb0b7" d="M 487.5,27.5 C 487.5,28.8333 487.5,30.1667 487.5,31.5C 487.5,32.8333 487.5,34.1667 487.5,35.5C 486.833,36.1667 486.167,36.8333 485.5,37.5C 485.753,33.9601 486.419,30.6267 487.5,27.5 Z"/></g>
<g><path style="opacity:0.188" fill="#b8cacf" d="M 525.5,22.5 C 525.5,23.1667 525.5,23.8333 525.5,24.5C 525.246,29.4439 524.246,34.1106 522.5,38.5C 522.5,37.1667 522.5,35.8333 522.5,34.5C 522.77,30.1842 523.77,26.1842 525.5,22.5 Z"/></g>
<g><path style="opacity:0.753" fill="#8ca2a9" d="M 16.5,28.5 C 16.5,31.1667 16.5,33.8333 16.5,36.5C 15.8333,36.5 15.1667,36.5 14.5,36.5C 14.5651,33.5718 15.2318,30.9052 16.5,28.5 Z"/></g>
<g><path style="opacity:0.376" fill="#99b0b6" d="M 416.5,25.5 C 416.5,26.5 416.5,27.5 416.5,28.5C 416.451,32.0781 415.785,35.4115 414.5,38.5C 414.167,38.5 413.833,38.5 413.5,38.5C 413.763,33.8757 414.763,29.5423 416.5,25.5 Z"/></g>
<g><path style="opacity:0.102" fill="#adbcbe" d="M 257.5,32.5 C 257.785,35.8291 257.118,38.8291 255.5,41.5C 255.676,38.2727 256.343,35.2727 257.5,32.5 Z"/></g>
<g><path style="opacity:1" fill="#577379" d="M 257.5,32.5 C 257.833,32.5 258.167,32.5 258.5,32.5C 259.26,37.9063 257.927,42.573 254.5,46.5C 254.366,44.7085 254.699,43.0418 255.5,41.5C 257.118,38.8291 257.785,35.8291 257.5,32.5 Z"/></g>
<g><path style="opacity:0.341" fill="#97aeb2" d="M 378.5,31.5 C 378.5,32.8333 378.5,34.1667 378.5,35.5C 377.785,42.4107 376.451,49.0773 374.5,55.5C 374.5,54.5 374.5,53.5 374.5,52.5C 375.343,45.2885 376.677,38.2885 378.5,31.5 Z"/></g>
<g><path style="opacity:1" fill="#5a767e" d="M 601.5,24.5 C 601.833,24.5 602.167,24.5 602.5,24.5C 601.855,36.5672 599.855,48.4006 596.5,60C 596.98,62.8152 598.313,65.1485 600.5,67C 621.004,67.1681 641.337,67.6681 661.5,68.5C 641.167,68.5 620.833,68.5 600.5,68.5C 599.508,68.6716 598.842,68.3382 598.5,67.5C 597.833,66.1667 596.833,65.1667 595.5,64.5C 594.167,61.1667 594.167,57.8333 595.5,54.5C 596.222,54.0825 596.722,53.4158 597,52.5C 597.497,49.854 597.664,47.1873 597.5,44.5C 597.216,42.5853 597.549,40.9187 598.5,39.5C 599.117,39.3893 599.617,39.056 600,38.5C 600.642,34.5092 601.142,30.5092 601.5,26.5C 601.5,25.8333 601.5,25.1667 601.5,24.5 Z"/></g>
<g><path style="opacity:0.796" fill="#5b7b81" d="M 292.5,39.5 C 292.5,40.5 292.5,41.5 292.5,42.5C 291.833,43.8333 291.167,45.1667 290.5,46.5C 289.99,43.6122 290.656,41.2789 292.5,39.5 Z"/></g>
<g><path style="opacity:0.059" fill="#d0e2e4" d="M 413.5,38.5 C 413.833,38.5 414.167,38.5 414.5,38.5C 414.785,41.8291 414.118,44.8291 412.5,47.5C 412.833,44.8333 413.167,42.1667 413.5,39.5C 413.5,39.1667 413.5,38.8333 413.5,38.5 Z"/></g>
<g><path style="opacity:0.525" fill="#a3b4b8" d="M 14.5,37.5 C 14.5,40.1667 14.5,42.8333 14.5,45.5C 14.5,45.8333 14.5,46.1667 14.5,46.5C 13.3054,46.1344 12.6387,45.301 12.5,44C 12.9902,41.6539 13.6568,39.4872 14.5,37.5 Z"/></g>
<g><path style="opacity:0.522" fill="#a9bbc2" d="M 485.5,37.5 C 485.5,40.1667 485.5,42.8333 485.5,45.5C 485.5,45.8333 485.5,46.1667 485.5,46.5C 484.305,46.1344 483.639,45.301 483.5,44C 483.99,41.6539 484.657,39.4872 485.5,37.5 Z"/></g>
<g><path style="opacity:1" fill="#375b63" d="M 14.5,36.5 C 15.1667,36.5 15.8333,36.5 16.5,36.5C 16.1667,39.1667 15.8333,41.8333 15.5,44.5C 24.1667,44.5 32.8333,44.5 41.5,44.5C 41.7373,45.791 41.404,46.791 40.5,47.5C 32.2312,45.5302 23.5645,44.8636 14.5,45.5C 14.5,42.8333 14.5,40.1667 14.5,37.5C 14.5,37.1667 14.5,36.8333 14.5,36.5 Z"/></g>
<g><path style="opacity:0.224" fill="#aac0c1" d="M 174.5,41.5 C 174.02,44.4432 173.02,47.1098 171.5,49.5C 171.018,46.1694 172.018,43.5027 174.5,41.5 Z"/></g>
<g><path style="opacity:1" fill="#3b5f65" d="M 487.5,35.5 C 487.037,38.4824 486.704,41.4824 486.5,44.5C 495.167,44.5 503.833,44.5 512.5,44.5C 512.843,46.4832 512.176,47.8166 510.5,48.5C 511.598,47.603 511.598,46.7697 510.5,46C 502.173,45.5003 493.84,45.3336 485.5,45.5C 485.5,42.8333 485.5,40.1667 485.5,37.5C 486.167,36.8333 486.833,36.1667 487.5,35.5 Z"/></g>
<g><path style="opacity:0.086" fill="#bfcfd2" d="M 638.5,22.5 C 638.5,23.8333 638.5,25.1667 638.5,26.5C 637.5,32.5 636.5,38.5 635.5,44.5C 655.007,44.1697 674.341,44.503 693.5,45.5C 673.833,45.5 654.167,45.5 634.5,45.5C 633.903,45.2648 633.57,44.7648 633.5,44C 635.621,37.3177 636.954,30.4844 637.5,23.5C 637.5,22.8333 637.833,22.5 638.5,22.5 Z"/></g>
<g><path style="opacity:0.692" fill="#6d8991" d="M 14.5,46.5 C 14.5,46.1667 14.5,45.8333 14.5,45.5C 23.5645,44.8636 32.2312,45.5302 40.5,47.5C 40.1583,48.3382 39.4916,48.6716 38.5,48.5C 30.9032,46.5332 22.9032,45.8665 14.5,46.5 Z"/></g>
<g><path style="opacity:0.545" fill="#99aaaf" d="M 50.5,39.5 C 50.5,40.8333 50.5,42.1667 50.5,43.5C 67.8333,44.1667 85.1667,44.8333 102.5,45.5C 102.5,46.1667 102.167,46.5 101.5,46.5C 84.1667,46.5 66.8333,46.5 49.5,46.5C 49.1984,43.9407 49.5318,41.6074 50.5,39.5 Z"/></g>
<g><path style="opacity:0.542" fill="#96a9ac" d="M 365.5,45.5 C 365.768,47.099 365.434,48.4324 364.5,49.5C 364.5,48.5 364.5,47.5 364.5,46.5C 347.991,46.1702 331.658,46.5036 315.5,47.5C 315.13,51.1368 314.13,54.4701 312.5,57.5C 312.5,56.8333 312.5,56.1667 312.5,55.5C 312.562,51.6631 313.562,48.1631 315.5,45C 332.241,44.1824 348.907,44.3491 365.5,45.5 Z"/></g>
<g><path style="opacity:0.647" fill="#68888a" d="M 413.5,39.5 C 413.167,42.1667 412.833,44.8333 412.5,47.5C 412.167,47.5 411.833,47.5 411.5,47.5C 411.294,44.5049 411.96,41.8383 413.5,39.5 Z"/></g>
<g><path style="opacity:0.759" fill="#6e8d93" d="M 485.5,46.5 C 485.5,46.1667 485.5,45.8333 485.5,45.5C 493.84,45.3336 502.173,45.5003 510.5,46C 511.598,46.7697 511.598,47.603 510.5,48.5C 509.833,48.5 509.167,48.5 508.5,48.5C 508.611,47.8826 508.944,47.3826 509.5,47C 501.507,46.5003 493.507,46.3336 485.5,46.5 Z"/></g>
<g><path style="opacity:0.553" fill="#99abb0" d="M 522.5,34.5 C 522.5,35.8333 522.5,37.1667 522.5,38.5C 522.643,40.2624 522.309,41.9291 521.5,43.5C 538.49,44.3329 555.49,44.8329 572.5,45C 574.578,46.2697 574.912,47.7697 573.5,49.5C 573.167,49.5 572.833,49.5 572.5,49.5C 572.5,48.5 572.5,47.5 572.5,46.5C 555.167,46.5 537.833,46.5 520.5,46.5C 520.344,42.2357 521.011,38.2357 522.5,34.5 Z"/></g>
<g><path style="opacity:0.534" fill="#83989d" d="M 634.5,45.5 C 654.167,45.5 673.833,45.5 693.5,45.5C 697.14,45.4754 699.473,47.142 700.5,50.5C 698.99,49.1639 697.323,47.9973 695.5,47C 674.996,46.8319 654.663,46.3319 634.5,45.5 Z"/></g>
<g><path style="opacity:0.09" fill="#c5dadf" d="M 14.5,46.5 C 22.9032,45.8665 30.9032,46.5332 38.5,48.5C 37.8333,48.5 37.1667,48.5 36.5,48.5C 29.1667,47.8333 21.8333,47.1667 14.5,46.5 Z"/></g>
<g><path style="opacity:0.937" fill="#3f5a63" d="M 49.5,46.5 C 66.8333,46.5 84.1667,46.5 101.5,46.5C 101.768,48.099 101.434,49.4324 100.5,50.5C 100.5,49.5 100.5,48.5 100.5,47.5C 83.3251,47.8299 66.3251,47.4966 49.5,46.5 Z"/></g>
<g><path style="opacity:0.925" fill="#3c5a61" d="M 315.5,47.5 C 331.658,46.5036 347.991,46.1702 364.5,46.5C 364.5,47.5 364.5,48.5 364.5,49.5C 364.425,52.2062 364.092,54.8728 363.5,57.5C 363.167,57.5 362.833,57.5 362.5,57.5C 363.051,54.1933 363.384,50.8599 363.5,47.5C 347.5,47.5 331.5,47.5 315.5,47.5 Z"/></g>
<g><path style="opacity:0.165" fill="#c6dce0" d="M 485.5,46.5 C 493.507,46.3336 501.507,46.5003 509.5,47C 508.944,47.3826 508.611,47.8826 508.5,48.5C 507.833,48.8333 507.167,49.1667 506.5,49.5C 506.167,49.5 505.833,49.5 505.5,49.5C 505.611,48.8826 505.944,48.3826 506.5,48C 499.321,47.8285 492.321,47.3285 485.5,46.5 Z"/></g>
<g><path style="opacity:0.94" fill="#3c5962" d="M 520.5,46.5 C 537.833,46.5 555.167,46.5 572.5,46.5C 572.5,47.5 572.5,48.5 572.5,49.5C 571.154,51.5368 569.82,53.5368 568.5,55.5C 568.461,54.4168 568.127,53.4168 567.5,52.5C 567.846,51.3044 568.346,51.3044 569,52.5C 569.44,50.9238 570.273,49.5904 571.5,48.5C 554.338,47.8333 537.338,47.1667 520.5,46.5 Z"/></g>
<g><path style="opacity:0.919" fill="#36575d" d="M 637.5,23.5 C 636.954,30.4844 635.621,37.3177 633.5,44C 633.57,44.7648 633.903,45.2648 634.5,45.5C 654.663,46.3319 674.996,46.8319 695.5,47C 697.323,47.9973 698.99,49.1639 700.5,50.5C 700.656,54.7643 699.989,58.7643 698.5,62.5C 698.5,59.8333 698.5,57.1667 698.5,54.5C 697.022,54.762 695.689,54.4287 694.5,53.5C 694.723,52.0333 695.056,50.5333 695.5,49C 694.5,48.6667 693.5,48.3333 692.5,48C 672.833,47.6667 653.167,47.3333 633.5,47C 632.884,45.5998 632.551,44.0998 632.5,42.5C 633.809,38.4062 634.809,34.2396 635.5,30C 634.13,27.0956 634.297,24.2623 636,21.5C 636.278,22.4158 636.778,23.0825 637.5,23.5 Z"/></g>
<g><path style="opacity:0.414" fill="#8ba2a7" d="M 181.5,22.5 C 187.979,21.5093 194.646,21.176 201.5,21.5C 201.829,34.6774 201.495,47.6774 200.5,60.5C 200.5,60.1667 200.5,59.8333 200.5,59.5C 200.5,47.5 200.5,35.5 200.5,23.5C 194.355,22.5098 188.022,22.1765 181.5,22.5 Z"/></g>
<g><path style="opacity:0.431" fill="#a0b0b7" d="M 36.5,48.5 C 35.1979,50.8218 33.1979,52.1551 30.5,52.5C 32.1475,50.6736 34.1475,49.3403 36.5,48.5 Z"/></g>
<g><path style="opacity:0.094" fill="#c3d5d9" d="M 292.5,42.5 C 292.58,45.7814 291.913,48.7814 290.5,51.5C 290.5,50.1667 290.5,48.8333 290.5,47.5C 290.5,47.1667 290.5,46.8333 290.5,46.5C 291.167,45.1667 291.833,43.8333 292.5,42.5 Z"/></g>
<g><path style="opacity:0.161" fill="#adc2c6" d="M 411.5,47.5 C 411.833,47.5 412.167,47.5 412.5,47.5C 411.435,56.4018 409.768,65.0685 407.5,73.5C 407.5,72.1667 407.5,70.8333 407.5,69.5C 408.473,62.0953 409.807,54.762 411.5,47.5 Z"/></g>
<g><path style="opacity:0.612" fill="#9cb2b7" d="M 597.5,44.5 C 597.664,47.1873 597.497,49.854 597,52.5C 596.722,53.4158 596.222,54.0825 595.5,54.5C 595.753,50.9601 596.419,47.6267 597.5,44.5 Z"/></g>
<g><path style="opacity:0.141" fill="#b8d4d6" d="M 136.5,47.5 C 136.5,48.1667 136.5,48.8333 136.5,49.5C 135.766,50.7079 135.433,52.0413 135.5,53.5C 134.833,53.8333 134.167,54.1667 133.5,54.5C 133.935,51.8427 134.935,49.5093 136.5,47.5 Z"/></g>
<g><path style="opacity:0.537" fill="#8aa0a3" d="M 135.5,53.5 C 134.389,56.8557 132.723,59.8557 130.5,62.5C 131.108,59.6733 132.108,57.0067 133.5,54.5C 134.167,54.1667 134.833,53.8333 135.5,53.5 Z"/></g>
<g><path style="opacity:0.314" fill="#9aaeb4" d="M 30.5,52.5 C 28.2486,55.2948 25.5819,57.6281 22.5,59.5C 22.1667,59.5 21.8333,59.5 21.5,59.5C 23.9485,56.4442 26.9485,54.1108 30.5,52.5 Z"/></g>
<g><path style="opacity:0.071" fill="#c3d4d7" d="M 312.5,55.5 C 312.5,56.1667 312.5,56.8333 312.5,57.5C 312.167,60.1667 311.833,62.8333 311.5,65.5C 311.167,65.5 310.833,65.5 310.5,65.5C 310.549,61.9219 311.215,58.5885 312.5,55.5 Z"/></g>
<g><path style="opacity:0.361" fill="#adbdbf" d="M 505.5,49.5 C 505.833,49.5 506.167,49.5 506.5,49.5C 501.61,52.4542 497.277,56.1208 493.5,60.5C 492.167,61.1667 490.833,61.8333 489.5,62.5C 493.605,56.7359 498.938,52.4026 505.5,49.5 Z"/></g>
<g><path style="opacity:0.173" fill="#c1d0d5" d="M 365.5,45.5 C 366.139,46.0968 366.472,46.9302 366.5,48C 365.999,52.7433 364.999,57.2433 363.5,61.5C 363.5,60.1667 363.5,58.8333 363.5,57.5C 364.092,54.8728 364.425,52.2062 364.5,49.5C 365.434,48.4324 365.768,47.099 365.5,45.5 Z"/></g>
<g><path style="opacity:1" fill="#204751" d="M 511.5,92.5 C 533.337,93.1667 555.337,93.8333 577.5,94.5C 576.607,97.0841 576.274,99.7508 576.5,102.5C 576.326,104.861 575.993,107.194 575.5,109.5C 573.896,110.287 573.229,111.62 573.5,113.5C 539.833,113.5 506.167,113.5 472.5,113.5C 472.5,111.167 472.5,108.833 472.5,106.5C 472.5,105.167 472.5,103.833 472.5,102.5C 473.903,99.0915 474.57,95.4248 474.5,91.5C 474.232,89.901 474.566,88.5676 475.5,87.5C 476.768,85.0948 477.435,82.4282 477.5,79.5C 481.23,73.7296 485.23,68.063 489.5,62.5C 490.833,61.8333 492.167,61.1667 493.5,60.5C 492.741,62.4308 491.407,63.9308 489.5,65C 490.711,66.1131 490.711,67.2798 489.5,68.5C 497.221,69.7083 501.721,66.3749 503,58.5C 504.011,57.6634 505.178,57.33 506.5,57.5C 506.649,58.552 506.483,59.552 506,60.5C 505.667,60.1667 505.333,59.8333 505,59.5C 504.333,61.8333 504.333,64.1667 505,66.5C 507.095,64.9501 509.262,64.6168 511.5,65.5C 508.862,67.137 506.529,69.137 504.5,71.5C 505.391,72.5896 506.391,72.5896 507.5,71.5C 508.262,72.6283 508.929,73.7949 509.5,75C 508.73,77.6067 508.063,80.2734 507.5,83C 507.8,85.0243 508.633,85.5243 510,84.5C 510.183,87.3647 510.683,90.0314 511.5,92.5 Z"/></g>
<g><path style="opacity:0.733" fill="#92a9ad" d="M 254.5,46.5 C 255.018,51.939 254.018,56.939 251.5,61.5C 251.978,56.2729 252.978,51.2729 254.5,46.5 Z"/></g>
<g><path style="opacity:0.118" fill="#c9dadb" d="M 171.5,49.5 C 170.801,52.5729 169.801,55.5729 168.5,58.5C 179.146,59.4987 189.813,59.832 200.5,59.5C 200.5,59.8333 200.5,60.1667 200.5,60.5C 189.116,61.1436 178.116,60.477 167.5,58.5C 168.042,55.0878 169.375,52.0878 171.5,49.5 Z"/></g>
<g><path style="opacity:0.122" fill="#9cb3b9" d="M 102.5,45.5 C 103.097,45.7352 103.43,46.2352 103.5,47C 100.443,55.9859 95.1092,63.1526 87.5,68.5C 73.1667,68.5 58.8333,68.5 44.5,68.5C 58.9943,67.6687 73.6609,67.1687 88.5,67C 93.5211,62.1601 97.5211,56.6601 100.5,50.5C 101.434,49.4324 101.768,48.099 101.5,46.5C 102.167,46.5 102.5,46.1667 102.5,45.5 Z"/></g>
<g><path style="opacity:0.682" fill="#677e85" d="M 167.5,58.5 C 178.116,60.477 189.116,61.1436 200.5,60.5C 189.346,61.4948 178.012,61.8281 166.5,61.5C 166.263,60.209 166.596,59.209 167.5,58.5 Z"/></g>
<g><path style="opacity:0.31" fill="#bcced1" d="M 374.5,52.5 C 374.5,53.5 374.5,54.5 374.5,55.5C 374.5,56.1667 374.5,56.8333 374.5,57.5C 373.232,59.9052 372.565,62.5718 372.5,65.5C 372.5,65.8333 372.5,66.1667 372.5,66.5C 372.167,66.5 371.833,66.5 371.5,66.5C 371.581,61.5233 372.581,56.8566 374.5,52.5 Z"/></g>
<g><path style="opacity:0.835" fill="#617b81" d="M 374.5,57.5 C 374.706,60.4951 374.04,63.1617 372.5,65.5C 372.565,62.5718 373.232,59.9052 374.5,57.5 Z"/></g>
<g><path style="opacity:0.267" fill="#aabfc5" d="M 572.5,49.5 C 572.833,49.5 573.167,49.5 573.5,49.5C 571.317,54.5266 568.483,59.1933 565,63.5C 563.223,65.7899 561.056,67.4566 558.5,68.5C 558.5,68.1667 558.5,67.8333 558.5,67.5C 562.299,63.9094 565.633,59.9094 568.5,55.5C 569.82,53.5368 571.154,51.5368 572.5,49.5 Z"/></g>
<g><path style="opacity:0.592" fill="#799295" d="M 21.5,59.5 C 21.8333,59.5 22.1667,59.5 22.5,59.5C 20.1667,62.5 17.5,65.1667 14.5,67.5C 14.5,67.1667 14.5,66.8333 14.5,66.5C 16.5,63.8333 18.8333,61.5 21.5,59.5 Z"/></g>
<g><path style="opacity:0.122" fill="#d0d8dc" d="M 130.5,62.5 C 130.771,64.3797 130.104,65.713 128.5,66.5C 128.66,64.847 129.326,63.5137 130.5,62.5 Z"/></g>
<g><path style="opacity:0.008" fill="#cdd9e2" d="M 595.5,64.5 C 596.833,65.1667 597.833,66.1667 598.5,67.5C 596.5,67.5 595.5,66.5 595.5,64.5 Z"/></g>
<g><path style="opacity:0.184" fill="#9fb5ba" d="M 700.5,50.5 C 701.638,53.3035 701.805,56.3035 701,59.5C 698.129,74.6975 694.962,89.6975 691.5,104.5C 691.5,103.167 691.5,101.833 691.5,100.5C 691.401,97.7628 691.735,95.0961 692.5,92.5C 693.924,90.4855 694.59,88.1522 694.5,85.5C 695.831,77.8551 697.164,70.1884 698.5,62.5C 699.989,58.7643 700.656,54.7643 700.5,50.5 Z"/></g>
<g><path style="opacity:0.267" fill="#aabec2" d="M 290.5,47.5 C 290.5,48.8333 290.5,50.1667 290.5,51.5C 289.583,58.3586 288.249,65.0253 286.5,71.5C 286.5,70.8333 286.5,70.1667 286.5,69.5C 287.552,61.9905 288.886,54.6572 290.5,47.5 Z"/></g>
<g><path style="opacity:0.392" fill="#9bafb4" d="M 14.5,66.5 C 14.5,66.8333 14.5,67.1667 14.5,67.5C 12.0101,71.6779 9.34343,75.6779 6.5,79.5C 7.91656,74.3212 10.5832,69.9879 14.5,66.5 Z"/></g>
<g><path style="opacity:0.667" fill="#708c94" d="M 310.5,65.5 C 310.833,65.5 311.167,65.5 311.5,65.5C 315.573,67.1349 319.906,68.1349 324.5,68.5C 320.167,68.5 315.833,68.5 311.5,68.5C 310.596,67.791 310.263,66.791 310.5,65.5 Z"/></g>
<g><path style="opacity:0.486" fill="#a2b5b8" d="M 489.5,62.5 C 485.23,68.063 481.23,73.7296 477.5,79.5C 479.805,72.5289 483.805,66.8622 489.5,62.5 Z"/></g>
<g><path style="opacity:0.713" fill="#86a2a7" d="M 558.5,67.5 C 558.5,67.8333 558.5,68.1667 558.5,68.5C 544.677,69.4958 530.677,69.8291 516.5,69.5C 515.833,70.5 515.167,71.5 514.5,72.5C 514.286,70.8561 514.62,69.3561 515.5,68C 529.829,67.5001 544.163,67.3334 558.5,67.5 Z"/></g>
<g><path style="opacity:0.157" fill="#bbd1d4" d="M 311.5,68.5 C 315.833,68.5 320.167,68.5 324.5,68.5C 324.276,72.1788 323.942,75.8455 323.5,79.5C 322.833,80.5 322.167,81.5 321.5,82.5C 322.167,78.1667 322.833,73.8333 323.5,69.5C 319.298,69.8168 315.298,69.4834 311.5,68.5 Z"/></g>
<g><path style="opacity:0.173" fill="#bcd0d5" d="M 600.5,68.5 C 620.833,68.5 641.167,68.5 661.5,68.5C 661.664,71.1873 661.497,73.854 661,76.5C 660.722,77.4158 660.222,78.0825 659.5,78.5C 659.963,75.5176 660.296,72.5176 660.5,69.5C 640.326,69.8305 620.326,69.4971 600.5,68.5 Z"/></g>
<g><path style="opacity:0.82" fill="#88a2a9" d="M 371.5,66.5 C 371.833,66.5 372.167,66.5 372.5,66.5C 372.768,68.099 372.434,69.4324 371.5,70.5C 371.167,70.5 370.833,70.5 370.5,70.5C 370.232,68.901 370.566,67.5676 371.5,66.5 Z"/></g>
<g><path style="opacity:0.329" fill="#a6bbc1" d="M 362.5,57.5 C 362.833,57.5 363.167,57.5 363.5,57.5C 363.5,58.8333 363.5,60.1667 363.5,61.5C 363.344,66.4714 362.344,71.138 360.5,75.5C 360.5,73.5 360.5,71.5 360.5,69.5C 361.593,65.6061 362.26,61.6061 362.5,57.5 Z"/></g>
<g><path style="opacity:0.729" fill="#627e84" d="M 286.5,69.5 C 286.5,70.1667 286.5,70.8333 286.5,71.5C 286.5,71.8333 286.5,72.1667 286.5,72.5C 285.833,73.5 285.167,74.5 284.5,75.5C 284.025,72.9179 284.692,70.9179 286.5,69.5 Z"/></g>
<g><path style="opacity:0.541" fill="#95adb2" d="M 128.5,67.5 C 128.514,71.4748 127.181,74.8082 124.5,77.5C 125.267,73.8512 126.6,70.5178 128.5,67.5 Z"/></g>
<g><path style="opacity:0.329" fill="#a3b4b8" d="M 250.5,66.5 C 250.664,69.1873 250.497,71.854 250,74.5C 249.722,75.4158 249.222,76.0825 248.5,76.5C 248.753,72.9601 249.419,69.6267 250.5,66.5 Z"/></g>
<g><path style="opacity:0.553" fill="#719092" d="M 407.5,69.5 C 407.5,70.8333 407.5,72.1667 407.5,73.5C 407.5,73.8333 407.5,74.1667 407.5,74.5C 406.833,75.1667 406.167,75.8333 405.5,76.5C 405.41,73.8478 406.076,71.5145 407.5,69.5 Z"/></g>
<g><path style="opacity:0.075" fill="#c9e0e2" d="M 516.5,69.5 C 516.324,72.7273 515.657,75.7273 514.5,78.5C 514.5,76.8333 514.5,75.1667 514.5,73.5C 514.5,73.1667 514.5,72.8333 514.5,72.5C 515.167,71.5 515.833,70.5 516.5,69.5 Z"/></g>
<g><path style="opacity:0.982" fill="#5f7880" d="M 661.5,68.5 C 662.638,71.3035 662.805,74.3035 662,77.5C 661.328,81.2213 660.161,84.5546 658.5,87.5C 658.5,86.1667 658.5,84.8333 658.5,83.5C 658.216,81.5853 658.549,79.9187 659.5,78.5C 660.222,78.0825 660.722,77.4158 661,76.5C 661.497,73.854 661.664,71.1873 661.5,68.5 Z"/></g>
<g><path style="opacity:0.294" fill="#80939c" d="M 360.5,69.5 C 360.5,71.5 360.5,73.5 360.5,75.5C 360.5,76.1667 360.5,76.8333 360.5,77.5C 359.833,78.5 359.167,79.5 358.5,80.5C 358.808,76.6403 359.475,72.9736 360.5,69.5 Z"/></g>
<g><path style="opacity:0.082" fill="#c7d7dd" d="M 370.5,70.5 C 370.384,73.8599 370.051,77.1933 369.5,80.5C 369.5,81.1667 369.5,81.8333 369.5,82.5C 368.833,83.5 368.167,84.5 367.5,85.5C 367.978,80.2729 368.978,75.2729 370.5,70.5 Z"/></g>
<g><path style="opacity:0.988" fill="#56767b" d="M 370.5,70.5 C 370.833,70.5 371.167,70.5 371.5,70.5C 371.664,73.1873 371.497,75.854 371,78.5C 370.722,79.4158 370.222,80.0825 369.5,80.5C 370.051,77.1933 370.384,73.8599 370.5,70.5 Z"/></g>
<g><path style="opacity:0.153" fill="#c1d1d5" d="M 286.5,72.5 C 285.5,78.5011 284.5,84.5011 283.5,90.5C 295.518,90.8323 307.518,90.499 319.5,89.5C 320.028,87.6639 320.694,85.9972 321.5,84.5C 321.552,86.9029 321.219,89.2362 320.5,91.5C 307.833,91.5 295.167,91.5 282.5,91.5C 282.5,89.5 282.5,87.5 282.5,85.5C 283.371,82.997 284.037,80.3303 284.5,77.5C 284.5,76.8333 284.5,76.1667 284.5,75.5C 285.167,74.5 285.833,73.5 286.5,72.5 Z"/></g>
<g><path style="opacity:0.706" fill="#627f86" d="M 514.5,73.5 C 514.5,75.1667 514.5,76.8333 514.5,78.5C 514.5,78.8333 514.5,79.1667 514.5,79.5C 513.833,79.8333 513.167,80.1667 512.5,80.5C 512.41,77.8478 513.076,75.5145 514.5,73.5 Z"/></g>
<g><path style="opacity:0.553" fill="#9eb2b7" d="M 124.5,77.5 C 124.821,80.5769 123.821,82.9103 121.5,84.5C 122.264,81.9823 123.264,79.649 124.5,77.5 Z"/></g>
<g><path style="opacity:0.069" fill="#cadce5" d="M 160.5,84.5 C 160.5,84.1667 160.5,83.8333 160.5,83.5C 173.833,83.5 187.167,83.5 200.5,83.5C 200.5,93.8333 200.5,104.167 200.5,114.5C 200.167,114.5 199.833,114.5 199.5,114.5C 199.413,104.68 199.413,94.6797 199.5,84.5C 186.5,84.5 173.5,84.5 160.5,84.5 Z"/></g>
<g><path style="opacity:0.263" fill="#aebfc3" d="M 6.5,79.5 C 6.43487,82.4282 5.7682,85.0948 4.5,87.5C 4.29379,84.5049 4.96046,81.8383 6.5,79.5 Z"/></g>
<g><path style="opacity:0.663" fill="#657f82" d="M 323.5,79.5 C 323.048,83.1629 322.548,86.8296 322,90.5C 321.617,91.056 321.117,91.3893 320.5,91.5C 321.219,89.2362 321.552,86.9029 321.5,84.5C 321.5,83.8333 321.5,83.1667 321.5,82.5C 322.167,81.5 322.833,80.5 323.5,79.5 Z"/></g>
<g><path style="opacity:0.263" fill="#bbc8cd" d="M 477.5,79.5 C 477.435,82.4282 476.768,85.0948 475.5,87.5C 475.294,84.5049 475.96,81.8383 477.5,79.5 Z"/></g>
<g><path style="opacity:0.714" fill="#8ba3a7" d="M 248.5,76.5 C 248.844,81.1219 248.177,85.4552 246.5,89.5C 246.5,88.8333 246.5,88.1667 246.5,87.5C 246.43,83.5752 247.097,79.9085 248.5,76.5 Z"/></g>
<g><path style="opacity:0.259" fill="#a9bcbf" d="M 514.5,79.5 C 514.218,82.9097 513.551,86.243 512.5,89.5C 534.663,90.1667 556.663,90.8333 578.5,91.5C 578.5,91.8333 578.5,92.1667 578.5,92.5C 556.167,92.5 533.833,92.5 511.5,92.5C 511.646,88.4809 511.979,84.4809 512.5,80.5C 513.167,80.1667 513.833,79.8333 514.5,79.5 Z"/></g>
<g><path style="opacity:0.867" fill="#547179" d="M 694.5,85.5 C 694.59,88.1522 693.924,90.4855 692.5,92.5C 692.41,89.8478 693.076,87.5145 694.5,85.5 Z"/></g>
<g><path style="opacity:0.082" fill="#c6d5d8" d="M 44.5,68.5 C 58.8333,68.5 73.1667,68.5 87.5,68.5C 73.6766,69.4958 59.6766,69.8291 45.5,69.5C 44.1667,76.5 42.8333,83.5 41.5,90.5C 63.673,90.1693 85.673,90.5026 107.5,91.5C 85.1667,91.5 62.8333,91.5 40.5,91.5C 40.4013,88.7628 40.7347,86.0961 41.5,83.5C 42.6082,78.5164 43.6082,73.5164 44.5,68.5 Z"/></g>
<g><path style="opacity:0.093" fill="#c8d8da" d="M 407.5,74.5 C 406.765,79.7456 405.765,84.9123 404.5,90C 424.671,90.1682 444.671,90.6682 464.5,91.5C 444.167,91.5 423.833,91.5 403.5,91.5C 403.5,90.5 403.5,89.5 403.5,88.5C 404.167,84.5 404.833,80.5 405.5,76.5C 406.167,75.8333 406.833,75.1667 407.5,74.5 Z"/></g>
<g><path style="opacity:0.082" fill="#b2c3c6" d="M 658.5,83.5 C 658.5,84.8333 658.5,86.1667 658.5,87.5C 658.5,88.8333 658.5,90.1667 658.5,91.5C 634.833,92.1667 611.167,92.8333 587.5,93.5C 587.414,92.5041 587.748,91.6708 588.5,91C 611.167,90.6667 633.833,90.3333 656.5,90C 657.117,87.723 657.784,85.5563 658.5,83.5 Z"/></g>
<g><path style="opacity:0.557" fill="#81979c" d="M 282.5,85.5 C 282.5,87.5 282.5,89.5 282.5,91.5C 295.167,91.5 307.833,91.5 320.5,91.5C 320.5,91.8333 320.5,92.1667 320.5,92.5C 307.5,92.5 294.5,92.5 281.5,92.5C 281.198,89.9407 281.532,87.6074 282.5,85.5 Z"/></g>
<g><path style="opacity:0.58" fill="#889da2" d="M 403.5,88.5 C 403.5,89.5 403.5,90.5 403.5,91.5C 423.833,91.5 444.167,91.5 464.5,91.5C 465.649,91.7911 466.316,92.6244 466.5,94C 466.472,95.0698 466.139,95.9032 465.5,96.5C 465.167,96.5 464.833,96.5 464.5,96.5C 464.5,95.1667 464.5,93.8333 464.5,92.5C 443.833,92.5 423.167,92.5 402.5,92.5C 402.232,90.901 402.566,89.5676 403.5,88.5 Z"/></g>
<g><path style="opacity:0.969" fill="#3d595f" d="M 41.5,83.5 C 40.7347,86.0961 40.4013,88.7628 40.5,91.5C 62.6703,92.1667 85.0037,92.8333 107.5,93.5C 107.376,94.1067 107.043,94.44 106.5,94.5C 104.735,93.5386 102.735,93.2053 100.5,93.5C 80.1667,93.5 59.8333,93.5 39.5,93.5C 39.3354,90.4816 39.502,87.4816 40,84.5C 40.3826,83.944 40.8826,83.6107 41.5,83.5 Z"/></g>
<g><path style="opacity:0.604" fill="#aabbbe" d="M 121.5,84.5 C 120.187,91.7853 117.52,98.452 113.5,104.5C 115.597,97.5295 118.264,90.8629 121.5,84.5 Z"/></g>
<g><path style="opacity:0.956" fill="#35545b" d="M 284.5,77.5 C 284.037,80.3303 283.371,82.997 282.5,85.5C 281.532,87.6074 281.198,89.9407 281.5,92.5C 294.5,92.5 307.5,92.5 320.5,92.5C 308.34,93.3308 296.007,93.8308 283.5,94C 283,94.5 282.5,95 282,95.5C 280.904,93.5413 280.404,91.3747 280.5,89C 280.8,84.5895 282.133,80.7561 284.5,77.5 Z"/></g>
<g><path style="opacity:0.961" fill="#70898e" d="M 369.5,82.5 C 369.23,87.4501 368.23,92.1167 366.5,96.5C 366.5,94.8333 366.5,93.1667 366.5,91.5C 366.205,89.2646 366.539,87.2646 367.5,85.5C 368.167,84.5 368.833,83.5 369.5,82.5 Z"/></g>
<g><path style="opacity:0.969" fill="#3a575c" d="M 402.5,92.5 C 423.167,92.5 443.833,92.5 464.5,92.5C 464.5,93.8333 464.5,95.1667 464.5,96.5C 464.167,96.5 463.833,96.5 463.5,96.5C 463.5,95.5 463.5,94.5 463.5,93.5C 442.993,93.8305 422.66,93.4972 402.5,92.5 Z"/></g>
<g><path style="opacity:0.979" fill="#3f5a60" d="M 511.5,92.5 C 533.833,92.5 556.167,92.5 578.5,92.5C 578.247,96.0399 577.581,99.3733 576.5,102.5C 576.274,99.7508 576.607,97.0841 577.5,94.5C 555.337,93.8333 533.337,93.1667 511.5,92.5 Z"/></g>
<g><path style="opacity:0.985" fill="#435f65" d="M 658.5,91.5 C 635.855,93.3254 612.855,94.1587 589.5,94C 588.863,98.3413 587.863,102.508 586.5,106.5C 586.5,103.833 586.5,101.167 586.5,98.5C 586.366,96.7085 586.699,95.0418 587.5,93.5C 611.167,92.8333 634.833,92.1667 658.5,91.5 Z"/></g>
<g><path style="opacity:0.169" fill="#bad0d0" d="M 246.5,87.5 C 246.5,88.1667 246.5,88.8333 246.5,89.5C 245.85,91.4352 245.517,93.4352 245.5,95.5C 245.167,95.5 244.833,95.5 244.5,95.5C 244.294,92.5049 244.96,89.8383 246.5,87.5 Z"/></g>
<g><path style="opacity:0.157" fill="#b6c8ce" d="M 360.5,77.5 C 358.655,88.5566 356.489,99.5566 354,110.5C 353.617,111.056 353.117,111.389 352.5,111.5C 354.499,101.172 356.499,90.8386 358.5,80.5C 359.167,79.5 359.833,78.5 360.5,77.5 Z"/></g>
<g><path style="opacity:0.325" fill="#9db0b4" d="M 40.5,91.5 C 62.8333,91.5 85.1667,91.5 107.5,91.5C 108.865,94.959 108.531,98.2924 106.5,101.5C 106.5,100.833 106.5,100.167 106.5,99.5C 106.5,97.8333 106.5,96.1667 106.5,94.5C 107.043,94.44 107.376,94.1067 107.5,93.5C 85.0037,92.8333 62.6703,92.1667 40.5,91.5 Z"/></g>
<g><path style="opacity:0.09" fill="#c4d6db" d="M 474.5,91.5 C 474.57,95.4248 473.903,99.0915 472.5,102.5C 472.43,98.5752 473.097,94.9085 474.5,91.5 Z"/></g>
<g><path style="opacity:1" fill="#768e95" d="M 4.5,87.5 C 4.66551,91.5138 4.49885,95.5138 4,99.5C 3.61742,100.056 3.11742,100.389 2.5,100.5C 2.5,99.5 2.5,98.5 2.5,97.5C 2.32198,93.8776 2.98864,90.5443 4.5,87.5 Z"/></g>
<g><path style="opacity:0.792" fill="#95aaaf" d="M 366.5,91.5 C 366.5,93.1667 366.5,94.8333 366.5,96.5C 366.768,98.099 366.434,99.4324 365.5,100.5C 365.167,100.5 364.833,100.5 364.5,100.5C 364.676,97.2727 365.343,94.2727 366.5,91.5 Z"/></g>
<g><path style="opacity:0.322" fill="#a9bec0" d="M 2.5,97.5 C 2.5,98.5 2.5,99.5 2.5,100.5C 2.5,101.833 2.5,103.167 2.5,104.5C 1.83333,105.167 1.16667,105.833 0.5,106.5C 0.676146,103.273 1.34281,100.273 2.5,97.5 Z"/></g>
<g><path style="opacity:1" fill="#1f4853" d="M 100.5,93.5 C 102.735,93.2053 104.735,93.5386 106.5,94.5C 106.5,96.1667 106.5,97.8333 106.5,99.5C 105.076,101.515 104.41,103.848 104.5,106.5C 104.784,108.415 104.451,110.081 103.5,111.5C 69.7222,113.482 35.7222,114.149 1.5,113.5C 1.5,112.167 1.5,110.833 1.5,109.5C 2.11742,109.611 2.61742,109.944 3,110.5C 5.95156,107.821 8.95156,107.488 12,109.5C 41.7929,109.419 71.2929,109.086 100.5,108.5C 101.014,106.488 101.18,104.488 101,102.5C 100.667,103.167 100.333,103.833 100,104.5C 70.6995,104.434 41.6995,104.434 13,104.5C 12.5,104 12,103.5 11.5,103C 21.8333,102.667 32.1667,102.333 42.5,102C 41.8333,101.667 41.1667,101.333 40.5,101C 46.4155,100.81 52.2488,100.31 58,99.5C 71.1888,100.224 84.5221,100.557 98,100.5C 98.5,100 99,99.5 99.5,99C 20.8333,98 20.8333,97 99.5,96C 100.252,95.3292 100.586,94.4959 100.5,93.5 Z"/></g>
<g><path style="opacity:0.216" fill="#b2c5ca" d="M 160.5,83.5 C 160.5,83.8333 160.5,84.1667 160.5,84.5C 159.504,84.4142 158.671,84.7476 158,85.5C 154.07,95.122 150.237,104.789 146.5,114.5C 146.167,114.5 145.833,114.5 145.5,114.5C 149.009,104.14 152.676,93.807 156.5,83.5C 157.833,83.5 159.167,83.5 160.5,83.5 Z"/></g>
<g><path style="opacity:0.137" fill="#bdced1" d="M 364.5,100.5 C 364.384,103.86 364.051,107.193 363.5,110.5C 363.5,111.5 363.5,112.5 363.5,113.5C 363.5,113.833 363.5,114.167 363.5,114.5C 363.167,114.5 362.833,114.5 362.5,114.5C 362.389,113.883 362.056,113.383 361.5,113C 362.274,108.689 363.274,104.523 364.5,100.5 Z"/></g>
<g><path style="opacity:0.114" fill="#b5c9cc" d="M 463.5,96.5 C 463.833,96.5 464.167,96.5 464.5,96.5C 464.833,96.5 465.167,96.5 465.5,96.5C 464.5,102.501 463.5,108.501 462.5,114.5C 462.167,114.5 461.833,114.5 461.5,114.5C 461.5,112.833 461.5,111.167 461.5,109.5C 461.5,108.833 461.5,108.167 461.5,107.5C 462.924,105.485 463.59,103.152 463.5,100.5C 463.5,99.1667 463.5,97.8333 463.5,96.5 Z"/></g>
<g><path style="opacity:0.843" fill="#748d94" d="M 691.5,100.5 C 691.5,101.833 691.5,103.167 691.5,104.5C 691.784,106.415 691.451,108.081 690.5,109.5C 690.167,109.5 689.833,109.5 689.5,109.5C 689.215,106.171 689.882,103.171 691.5,100.5 Z"/></g>
<g><path style="opacity:0.486" fill="#7c9a9e" d="M 106.5,99.5 C 106.5,100.167 106.5,100.833 106.5,101.5C 106.5,102.167 106.5,102.833 106.5,103.5C 105.833,104.5 105.167,105.5 104.5,106.5C 104.41,103.848 105.076,101.515 106.5,99.5 Z"/></g>
<g><path style="opacity:0.831" fill="#4d6e72" d="M 463.5,100.5 C 463.59,103.152 462.924,105.485 461.5,107.5C 461.171,104.772 461.837,102.438 463.5,100.5 Z"/></g>
<g><path style="opacity:0.106" fill="#c3d3d8" d="M 578.5,91.5 C 579.152,92.4486 579.486,93.6153 579.5,95C 578.667,101.649 577.333,108.149 575.5,114.5C 575.167,114.5 574.833,114.5 574.5,114.5C 574.629,112.784 574.962,111.117 575.5,109.5C 575.993,107.194 576.326,104.861 576.5,102.5C 577.581,99.3733 578.247,96.0399 578.5,92.5C 578.5,92.1667 578.5,91.8333 578.5,91.5 Z"/></g>
<g><path style="opacity:0.098" fill="#aabdc0" d="M 244.5,95.5 C 244.833,95.5 245.167,95.5 245.5,95.5C 244.174,101.804 243.174,108.138 242.5,114.5C 241.833,114.5 241.167,114.5 240.5,114.5C 241.327,108.032 242.66,101.699 244.5,95.5 Z"/></g>
<g><path style="opacity:1" fill="#1d434f" d="M 349.5,112.5 C 349.5,113.167 349.167,113.5 348.5,113.5C 345.603,113.875 342.937,113.375 340.5,112C 310.167,111.667 279.833,111.333 249.5,111C 252.943,110.779 253.276,109.779 250.5,108C 280.5,107.333 310.5,107.333 340.5,108C 343.803,109.059 346.803,110.559 349.5,112.5 Z"/></g>
<g><path style="opacity:0.961" fill="#536f75" d="M 364.5,100.5 C 364.833,100.5 365.167,100.5 365.5,100.5C 365.664,103.187 365.497,105.854 365,108.5C 364.722,109.416 364.222,110.082 363.5,110.5C 364.051,107.193 364.384,103.86 364.5,100.5 Z"/></g>
<g><path style="opacity:0.329" fill="#afc0c5" d="M 586.5,98.5 C 586.5,101.167 586.5,103.833 586.5,106.5C 586.167,107.167 585.833,107.833 585.5,108.5C 585.167,108.5 584.833,108.5 584.5,108.5C 584.753,104.96 585.419,101.627 586.5,98.5 Z"/></g>
<g><path style="opacity:0.141" fill="#c3d5d7" d="M 106.5,103.5 C 106.089,107.221 105.422,110.888 104.5,114.5C 104.167,114.5 103.833,114.5 103.5,114.5C 103.5,113.5 103.5,112.5 103.5,111.5C 104.451,110.081 104.784,108.415 104.5,106.5C 105.167,105.5 105.833,104.5 106.5,103.5 Z"/></g>
<g><path style="opacity:0.21" fill="#bed3d5" d="M 236.5,40.5 C 236.235,65.1678 235.902,89.8345 235.5,114.5C 235.167,114.5 234.833,114.5 234.5,114.5C 234.5,114.167 234.5,113.833 234.5,113.5C 234.5,99.8333 234.5,86.1667 234.5,72.5C 235.167,61.8333 235.833,51.1667 236.5,40.5 Z"/></g>
<g><path style="opacity:0.145" fill="#c0d5d8" d="M 472.5,102.5 C 472.5,103.833 472.5,105.167 472.5,106.5C 471.527,108.948 471.194,111.615 471.5,114.5C 471.167,114.5 470.833,114.5 470.5,114.5C 470.196,113.85 469.863,113.183 469.5,112.5C 470.081,108.929 471.081,105.596 472.5,102.5 Z"/></g>
<g><path style="opacity:1" fill="#1c4450" d="M 372.5,107.5 C 396.836,107.333 421.169,107.5 445.5,108C 446.337,109.011 446.67,110.178 446.5,111.5C 421.824,111.833 397.158,111.5 372.5,110.5C 371.209,109.473 371.209,108.473 372.5,107.5 Z"/></g>
<g><path style="opacity:1" fill="#1c4450" d="M 597.5,113.5 C 597.167,113.5 596.833,113.5 596.5,113.5C 595.032,111.389 595.365,109.556 597.5,108C 622.173,107.167 646.84,107.334 671.5,108.5C 671.167,109.167 670.833,109.833 670.5,110.5C 645.82,110.838 621.486,111.838 597.5,113.5 Z"/></g>
<g><path style="opacity:0.576" fill="#aec0c4" d="M 113.5,104.5 C 112.833,107.833 112.167,111.167 111.5,114.5C 110.833,114.5 110.167,114.5 109.5,114.5C 110.263,110.863 111.597,107.53 113.5,104.5 Z"/></g>
<g><path style="opacity:0.239" fill="#abbcc4" d="M 352.5,111.5 C 352.218,112.778 351.551,113.778 350.5,114.5C 349.833,114.5 349.167,114.5 348.5,114.5C 348.5,114.167 348.5,113.833 348.5,113.5C 349.167,113.5 349.5,113.167 349.5,112.5C 350.391,111.89 351.391,111.557 352.5,111.5 Z"/></g>
<g><path style="opacity:0.086" fill="#adc7c7" d="M 689.5,109.5 C 689.833,109.5 690.167,109.5 690.5,109.5C 689.925,111.411 688.925,113.078 687.5,114.5C 686.5,114.5 685.5,114.5 684.5,114.5C 684.5,114.167 684.5,113.833 684.5,113.5C 686.775,112.889 688.441,111.555 689.5,109.5 Z"/></g>
<g><path style="opacity:0.784" fill="#617e86" d="M 2.5,104.5 C 2.63404,106.292 2.30071,107.958 1.5,109.5C 1.5,110.833 1.5,112.167 1.5,113.5C 35.7222,114.149 69.7222,113.482 103.5,111.5C 103.5,112.5 103.5,113.5 103.5,114.5C 68.8333,114.5 34.1667,114.5 -0.5,114.5C -0.5,111.833 -0.5,109.167 -0.5,106.5C -0.166667,106.5 0.166667,106.5 0.5,106.5C 1.16667,105.833 1.83333,105.167 2.5,104.5 Z"/></g>
<g><path style="opacity:0.888" fill="#5d7e83" d="M 200.5,83.5 C 201.494,93.3194 201.827,103.319 201.5,113.5C 212.5,113.5 223.5,113.5 234.5,113.5C 234.5,113.833 234.5,114.167 234.5,114.5C 223.167,114.5 211.833,114.5 200.5,114.5C 200.5,104.167 200.5,93.8333 200.5,83.5 Z"/></g>
<g><path style="opacity:0.867" fill="#597f83" d="M 461.5,109.5 C 461.5,111.167 461.5,112.833 461.5,114.5C 428.833,114.5 396.167,114.5 363.5,114.5C 363.5,114.167 363.5,113.833 363.5,113.5C 395.833,113.5 428.167,113.5 460.5,113.5C 460.232,111.901 460.566,110.568 461.5,109.5 Z"/></g>
<g><path style="opacity:0.823" fill="#5d7a82" d="M 472.5,106.5 C 472.5,108.833 472.5,111.167 472.5,113.5C 506.167,113.5 539.833,113.5 573.5,113.5C 573.229,111.62 573.896,110.287 575.5,109.5C 574.962,111.117 574.629,112.784 574.5,114.5C 540.167,114.5 505.833,114.5 471.5,114.5C 471.194,111.615 471.527,108.948 472.5,106.5 Z"/></g>
<g><path style="opacity:0.886" fill="#5e8388" d="M 584.5,108.5 C 584.833,108.5 585.167,108.5 585.5,108.5C 585.5,110.167 585.5,111.833 585.5,113.5C 589.167,113.5 592.833,113.5 596.5,113.5C 596.833,113.5 597.167,113.5 597.5,113.5C 626.5,113.5 655.5,113.5 684.5,113.5C 684.5,113.833 684.5,114.167 684.5,114.5C 650.833,114.5 617.167,114.5 583.5,114.5C 583.517,112.435 583.85,110.435 584.5,108.5 Z"/></g>
</svg>
