<?xml version="1.0" encoding="UTF-8"?>
<!DOCTYPE svg PUBLIC "-//W3C//DTD SVG 1.1//EN" "http://www.w3.org/Graphics/SVG/1.1/DTD/svg11.dtd">
<svg xmlns="http://www.w3.org/2000/svg" version="1.1" width="614px" height="115px" style="shape-rendering:geometricPrecision; text-rendering:geometricPrecision; image-rendering:optimizeQuality; fill-rule:evenodd; clip-rule:evenodd" xmlns:xlink="http://www.w3.org/1999/xlink">
<g><path style="opacity:1" fill="#1a2b50" d="M 205.5,4.5 C 226.224,0.204876 243.058,6.20488 256,22.5C 264.37,40.5117 260.203,55.0117 243.5,66C 223.674,75.7166 204.674,74.3833 186.5,62C 174.423,50.1451 172.257,36.6451 180,21.5C 186.797,13.1896 195.297,7.52291 205.5,4.5 Z M 213.5,17.5 C 225.34,16.3816 234.506,20.715 241,30.5C 244.666,42.3373 240.833,50.8373 229.5,56C 215.607,61.1537 204.107,57.987 195,46.5C 191.067,36.4073 193.567,28.2407 202.5,22C 206.157,20.1776 209.824,18.6776 213.5,17.5 Z"/></g>
<g><path style="opacity:1" fill="#1a2b50" d="M 471.5,4.5 C 488.766,1.27384 504.099,5.10718 517.5,16C 528.892,29.7678 529.392,43.9344 519,58.5C 500.571,74.1973 480.404,76.6973 458.5,66C 441.092,54.201 437.259,39.0343 447,20.5C 453.722,12.7369 461.889,7.40352 471.5,4.5 Z M 479.5,17.5 C 492.426,16.3761 501.926,21.3761 508,32.5C 509.984,44.6995 505.15,52.8662 493.5,57C 479.925,60.6984 469.092,56.8651 461,45.5C 457.67,35.8215 460.17,27.9882 468.5,22C 472.157,20.1776 475.824,18.6776 479.5,17.5 Z"/></g>
<g><path style="opacity:1" fill="#18294f" d="M 415.5,53.5 C 421.833,53.5 428.167,53.5 434.5,53.5C 434.5,58.8333 434.5,64.1667 434.5,69.5C 431.833,69.5 429.167,69.5 426.5,69.5C 414.495,69.6665 402.495,69.4999 390.5,69C 374.881,66.2963 364.714,57.4629 360,42.5C 359.422,27.0629 366.255,16.2295 380.5,10C 383.774,8.79768 387.107,7.79768 390.5,7C 405.496,6.50008 420.496,6.33342 435.5,6.5C 435.5,12.1667 435.5,17.8333 435.5,23.5C 428.5,23.5 421.5,23.5 414.5,23.5C 414.5,22.1667 414.5,20.8333 414.5,19.5C 406.344,19.009 398.344,19.8424 390.5,22C 377.839,27.834 375.006,36.6673 382,48.5C 386.674,52.7527 392.174,55.2527 398.5,56C 404.157,56.4994 409.824,56.6661 415.5,56.5C 415.5,55.5 415.5,54.5 415.5,53.5 Z"/></g>
<g><path style="opacity:1" fill="#1d2d52" d="M 554.5,5.5 C 570.5,5.5 586.5,5.5 602.5,5.5C 602.5,11.5 602.5,17.5 602.5,23.5C 597.167,23.5 591.833,23.5 586.5,23.5C 586.5,22.1667 586.5,20.8333 586.5,19.5C 576.494,19.3335 566.494,19.5002 556.5,20C 551.605,22.8235 551.271,26.1568 555.5,30C 566.442,31.24 577.442,31.9067 588.5,32C 594.553,33.7739 599.72,36.9405 604,41.5C 607.937,48.9692 607.104,55.8025 601.5,62C 596.655,65.4216 591.322,67.755 585.5,69C 568.837,69.4999 552.17,69.6666 535.5,69.5C 535.5,63.8333 535.5,58.1667 535.5,52.5C 540.833,52.5 546.167,52.5 551.5,52.5C 551.5,53.5 551.5,54.5 551.5,55.5C 561.839,55.6665 572.172,55.4998 582.5,55C 587.809,51.717 587.809,48.3837 582.5,45C 571.463,44.8193 560.463,44.1526 549.5,43C 539.433,40.9331 533.433,34.9331 531.5,25C 532.324,18.3573 535.658,13.3573 541.5,10C 545.846,8.16398 550.179,6.66398 554.5,5.5 Z"/></g>
<g><path style="opacity:1" fill="#192a4f" d="M 10.5,7.5 C 28.8364,7.33339 47.1697,7.50006 65.5,8C 78.9116,10.6701 83.745,18.5034 80,31.5C 78.3163,33.3513 76.4829,35.018 74.5,36.5C 86.0441,45.2627 86.3774,54.4293 75.5,64C 72.382,65.893 69.0487,67.2264 65.5,68C 47.1697,68.4999 28.8364,68.6666 10.5,68.5C 10.6664,60.4931 10.4997,52.4931 10,44.5C 8.98873,43.6634 7.82207,43.33 6.5,43.5C 6.5,39.1667 6.5,34.8333 6.5,30.5C 7.83333,30.5 9.16667,30.5 10.5,30.5C 10.5,22.8333 10.5,15.1667 10.5,7.5 Z M 29.5,20.5 C 38.8393,20.3335 48.1726,20.5002 57.5,21C 63.0155,24.612 62.6822,27.612 56.5,30C 47.5062,30.4998 38.5062,30.6664 29.5,30.5C 29.5,27.1667 29.5,23.8333 29.5,20.5 Z M 29.5,44.5 C 39.5056,44.3335 49.5056,44.5002 59.5,45C 66.0438,49.3297 65.3772,52.6631 57.5,55C 48.1726,55.4998 38.8393,55.6665 29.5,55.5C 29.5,51.8333 29.5,48.1667 29.5,44.5 Z"/></g>
<g><path style="opacity:1" fill="#19294f" d="M 130.5,44.5 C 125.695,43.5128 120.695,43.1795 115.5,43.5C 115.5,51.8333 115.5,60.1667 115.5,68.5C 109.355,69.4902 103.022,69.8235 96.5,69.5C 96.5,61.1667 96.5,52.8333 96.5,44.5C 95.791,43.596 94.791,43.2627 93.5,43.5C 93.5,39.5 93.5,35.5 93.5,31.5C 94.791,31.7373 95.791,31.404 96.5,30.5C 96.5,22.8333 96.5,15.1667 96.5,7.5C 114.17,7.33339 131.836,7.50006 149.5,8C 160.114,9.61718 166.448,15.6172 168.5,26C 166.702,35.4221 161.036,41.0887 151.5,43C 158.833,51.6667 166.167,60.3333 173.5,69C 165.833,69.6667 158.167,69.6667 150.5,69C 144.348,60.354 137.681,52.1874 130.5,44.5 Z M 115.5,20.5 C 124.506,20.3336 133.506,20.5002 142.5,21C 147.647,22.2854 148.647,24.952 145.5,29C 143.608,29.9734 141.608,30.6401 139.5,31C 131.833,31.6667 124.167,31.6667 116.5,31C 115.544,27.6064 115.211,24.1064 115.5,20.5 Z"/></g>
<g><path style="opacity:1" fill="#16274d" d="M 270.5,7.5 C 277.175,7.33375 283.842,7.50042 290.5,8C 304,20.8333 317.5,33.6667 331,46.5C 331.5,37.8397 331.666,29.1731 331.5,20.5C 330.167,20.5 328.833,20.5 327.5,20.5C 327.5,16.1667 327.5,11.8333 327.5,7.5C 335.167,7.5 342.833,7.5 350.5,7.5C 350.5,27.8333 350.5,48.1667 350.5,68.5C 344.167,68.5 337.833,68.5 331.5,68.5C 317.237,56.4082 303.404,43.7416 290,30.5C 289.5,43.1623 289.333,55.8289 289.5,68.5C 283.167,68.5 276.833,68.5 270.5,68.5C 270.5,48.1667 270.5,27.8333 270.5,7.5 Z"/></g>
<g><path style="opacity:1" fill="#576884" d="M 96.5,30.5 C 95.791,31.404 94.791,31.7373 93.5,31.5C 93.5,35.5 93.5,39.5 93.5,43.5C 94.791,43.2627 95.791,43.596 96.5,44.5C 95.1667,44.5 93.8333,44.5 92.5,44.5C 92.5,39.8333 92.5,35.1667 92.5,30.5C 93.8333,30.5 95.1667,30.5 96.5,30.5 Z"/></g>
<g><path style="opacity:1" fill="#8391a3" d="M 130.5,44.5 C 125.833,44.5 121.167,44.5 116.5,44.5C 116.826,52.6841 116.492,60.6841 115.5,68.5C 115.5,60.1667 115.5,51.8333 115.5,43.5C 120.695,43.1795 125.695,43.5128 130.5,44.5 Z"/></g>
<g><path style="opacity:1" fill="#566682" d="M 415.5,53.5 C 421.979,52.5093 428.646,52.176 435.5,52.5C 435.5,58.5 435.5,64.5 435.5,70.5C 432.287,70.81 429.287,70.4767 426.5,69.5C 429.167,69.5 431.833,69.5 434.5,69.5C 434.5,64.1667 434.5,58.8333 434.5,53.5C 428.167,53.5 421.833,53.5 415.5,53.5 Z"/></g>
<g><path style="opacity:1" fill="#65748d" d="M 270.5,7.5 C 270.5,27.8333 270.5,48.1667 270.5,68.5C 276.833,68.5 283.167,68.5 289.5,68.5C 283.021,69.4907 276.354,69.824 269.5,69.5C 269.169,48.6599 269.503,27.9933 270.5,7.5 Z"/></g>
<g><path style="opacity:1" fill="#64748d" d="M 350.5,7.5 C 351.497,27.9933 351.831,48.6599 351.5,69.5C 344.646,69.824 337.979,69.4907 331.5,68.5C 337.833,68.5 344.167,68.5 350.5,68.5C 350.5,48.1667 350.5,27.8333 350.5,7.5 Z"/></g>
<g><path style="opacity:1" fill="#f06944" d="M 181.5,89.5 C 192.155,87.6569 196.655,91.9902 195,102.5C 191.349,106.205 186.849,107.539 181.5,106.5C 181.5,100.833 181.5,95.1667 181.5,89.5 Z M 186.5,93.5 C 190.976,93.8222 192.476,96.1556 191,100.5C 189.846,101.743 188.512,102.743 187,103.5C 186.502,100.183 186.335,96.8499 186.5,93.5 Z"/></g>
<g><path style="opacity:1" fill="#f06a45" d="M 230.5,89.5 C 234.167,89.5 237.833,89.5 241.5,89.5C 241.5,90.8333 241.5,92.1667 241.5,93.5C 233.5,94.1667 233.5,94.8333 241.5,95.5C 241.5,96.8333 241.5,98.1667 241.5,99.5C 239.5,99.5 237.5,99.5 235.5,99.5C 235.5,100.5 235.5,101.5 235.5,102.5C 237.5,102.5 239.5,102.5 241.5,102.5C 241.5,103.833 241.5,105.167 241.5,106.5C 237.833,106.5 234.167,106.5 230.5,106.5C 230.5,100.833 230.5,95.1667 230.5,89.5 Z"/></g>
<g><path style="opacity:1" fill="#ed5933" d="M 276.5,89.5 C 278.604,89.2011 280.604,89.5344 282.5,90.5C 285.865,100.028 287.198,99.6944 286.5,89.5C 287.833,89.5 289.167,89.5 290.5,89.5C 290.5,95.1667 290.5,100.833 290.5,106.5C 288.278,106.822 286.444,106.155 285,104.5C 281.011,93.9116 279.511,94.5782 280.5,106.5C 279.167,106.5 277.833,106.5 276.5,106.5C 276.5,100.833 276.5,95.1667 276.5,89.5 Z"/></g>
<g><path style="opacity:1" fill="#f16641" d="M 324.5,90.5 C 326.223,89.193 328.057,89.193 330,90.5C 331,93.5 332,96.5 333,99.5C 333.943,96.176 334.776,92.8426 335.5,89.5C 337.167,89.5 338.833,89.5 340.5,89.5C 339.31,94.5713 337.81,99.5713 336,104.5C 334.33,106.698 332.33,107.032 330,105.5C 328.432,100.286 326.599,95.2862 324.5,90.5 Z"/></g>
<g><path style="opacity:1" fill="#ef613b" d="M 374.5,89.5 C 378.167,89.5 381.833,89.5 385.5,89.5C 385.5,90.8333 385.5,92.1667 385.5,93.5C 383.076,93.1924 380.743,93.5258 378.5,94.5C 380.396,95.4656 382.396,95.7989 384.5,95.5C 384.5,96.8333 384.5,98.1667 384.5,99.5C 382.5,99.5 380.5,99.5 378.5,99.5C 378.5,100.5 378.5,101.5 378.5,102.5C 380.833,102.5 383.167,102.5 385.5,102.5C 385.5,103.833 385.5,105.167 385.5,106.5C 381.833,106.5 378.167,106.5 374.5,106.5C 374.5,100.833 374.5,95.1667 374.5,89.5 Z"/></g>
<g><path style="opacity:1" fill="#ee5933" d="M 420.5,89.5 C 423.85,89.335 427.183,89.5017 430.5,90C 433.122,93.1305 433.122,96.2972 430.5,99.5C 431.635,101.799 432.968,103.966 434.5,106C 432.833,106.667 431.167,106.667 429.5,106C 428.12,104.075 426.62,102.241 425,100.5C 424.505,102.473 424.338,104.473 424.5,106.5C 423.167,106.5 421.833,106.5 420.5,106.5C 420.5,100.833 420.5,95.1667 420.5,89.5 Z"/></g>
<g><path style="opacity:1" fill="#fde0d7" d="M 424.5,92.5 C 428.161,92.3501 429.161,93.8501 427.5,97C 426.552,97.4828 425.552,97.6495 424.5,97.5C 424.5,95.8333 424.5,94.1667 424.5,92.5 Z"/></g>
</svg>
