<?xml version="1.0" encoding="UTF-8"?>
<!DOCTYPE svg PUBLIC "-//W3C//DTD SVG 1.1//EN" "http://www.w3.org/Graphics/SVG/1.1/DTD/svg11.dtd">
<svg xmlns="http://www.w3.org/2000/svg" version="1.1" width="763px" height="220px" style="shape-rendering:geometricPrecision; text-rendering:geometricPrecision; image-rendering:optimizeQuality; fill-rule:evenodd; clip-rule:evenodd" xmlns:xlink="http://www.w3.org/1999/xlink">
<g><path style="opacity:1" fill="#ff8713" d="M 52.5,10.5 C 58.1667,10.5 63.8333,10.5 69.5,10.5C 71.2235,21.8415 73.0569,33.1748 75,44.5C 82.5,33.5 90,22.5 97.5,11.5C 104.142,10.3358 110.808,10.1691 117.5,11C 113.112,26.0495 109.112,41.2161 105.5,56.5C 101.116,56.8256 96.7828,56.4922 92.5,55.5C 95.4906,45.2068 97.9906,34.8734 100,24.5C 92.8333,35 85.6667,45.5 78.5,56C 74.1794,56.499 69.8461,56.6657 65.5,56.5C 63.8846,45.4742 62.0513,34.4742 60,23.5C 57.1653,34.1723 54.332,44.839 51.5,55.5C 47.2047,56.6609 42.8713,56.8275 38.5,56C 42.0713,42.8832 45.5713,29.7165 49,16.5C 49.5637,14.1133 50.7304,12.1133 52.5,10.5 Z"/></g>
<g><path style="opacity:1" fill="#ff8716" d="M 140.5,10.5 C 144.167,10.5 147.833,10.5 151.5,10.5C 148.005,24.481 144.505,38.481 141,52.5C 137.349,56.2053 132.849,57.5386 127.5,56.5C 130.504,43.4835 133.671,30.4835 137,17.5C 137.653,14.8608 138.82,12.5274 140.5,10.5 Z"/></g>
<g><path style="opacity:1" fill="#ff8714" d="M 195.5,10.5 C 199.555,10.1758 203.555,10.5091 207.5,11.5C 211.971,26.3831 215.971,41.3831 219.5,56.5C 215.154,56.6657 210.821,56.499 206.5,56C 205.427,52.8797 204.427,49.7131 203.5,46.5C 195.5,45.1667 187.5,45.1667 179.5,46.5C 175.005,55.0789 168.005,58.2456 158.5,56C 170.349,40.3301 182.682,25.1634 195.5,10.5 Z M 197.5,22.5 C 198.946,27.0147 200.279,31.6814 201.5,36.5C 196.533,37.6623 191.533,37.8289 186.5,37C 190.54,32.4061 194.206,27.5728 197.5,22.5 Z"/></g>
<g><path style="opacity:1" fill="#ff8613" d="M 249.5,10.5 C 255.206,10.1712 260.872,10.5046 266.5,11.5C 268.547,22.4477 270.38,33.4477 272,44.5C 279.833,33.3333 287.667,22.1667 295.5,11C 301.833,10.3333 308.167,10.3333 314.5,11C 310.583,25.8326 306.583,40.6659 302.5,55.5C 298.205,56.6609 293.871,56.8275 289.5,56C 292.72,45.6237 295.22,35.1237 297,24.5C 289.833,35 282.667,45.5 275.5,56C 271.179,56.499 266.846,56.6657 262.5,56.5C 261.42,45.6862 259.587,35.0195 257,24.5C 254.177,34.7905 251.511,45.1238 249,55.5C 244.934,56.4637 240.767,56.797 236.5,56.5C 239.523,42.0754 243.023,27.742 247,13.5C 248.045,12.6266 248.878,11.6266 249.5,10.5 Z"/></g>
<g><path style="opacity:1" fill="#ff8817" d="M 338.5,10.5 C 341.833,10.5 345.167,10.5 348.5,10.5C 345.294,25.3248 341.46,39.9914 337,54.5C 333.078,56.3124 328.911,56.979 324.5,56.5C 327.995,42.519 331.495,28.519 335,14.5C 335.69,12.6498 336.856,11.3164 338.5,10.5 Z"/></g>
<g><path style="opacity:1" fill="#108e97" d="M 431.5,101.5 C 433.483,100.529 435.483,99.5294 437.5,98.5C 450.164,97.0884 462.831,97.255 475.5,99C 488.61,104.046 493.777,113.546 491,127.5C 487.162,142.186 483.329,156.852 479.5,171.5C 472.5,171.5 465.5,171.5 458.5,171.5C 462.656,155.876 466.656,140.209 470.5,124.5C 471.686,123.295 471.686,121.961 470.5,120.5C 469.264,118.172 467.264,117.006 464.5,117C 451.167,116.333 437.833,116.333 424.5,117C 420.209,132.875 415.709,148.709 411,164.5C 409.332,168.165 406.499,170.332 402.5,171C 397.845,171.499 393.179,171.666 388.5,171.5C 396.889,137.611 406.055,103.944 416,70.5C 417.731,68.3834 419.898,66.8834 422.5,66C 427.533,65.1711 432.533,65.3377 437.5,66.5C 433.685,79.0939 430.518,91.7605 428,104.5C 429.039,103.29 430.206,102.29 431.5,101.5 Z"/></g>
<g><path style="opacity:1" fill="#138f97" d="M 279.5,66.5 C 283.833,66.5 288.167,66.5 292.5,66.5C 284.312,98.5666 275.812,130.567 267,162.5C 264.16,169.791 258.826,172.791 251,171.5C 248.5,171.333 246,171.167 243.5,171C 251.526,141.917 259.359,112.751 267,83.5C 267.691,75.0125 271.858,69.3458 279.5,66.5 Z"/></g>
<g><path style="opacity:1" fill="#1b919a" d="M 533.5,66.5 C 537.833,66.5 542.167,66.5 546.5,66.5C 544.677,73.4587 543.01,80.4587 541.5,87.5C 534.5,87.5 527.5,87.5 520.5,87.5C 521.016,80.7502 523.349,74.7502 527.5,69.5C 529.604,68.4805 531.604,67.4805 533.5,66.5 Z"/></g>
<g><path style="opacity:1" fill="#ff8f29" d="M 437.5,98.5 C 435.483,99.5294 433.483,100.529 431.5,101.5C 434.173,90.4755 437.006,79.4755 440,68.5C 441.786,69.7774 442.952,71.444 443.5,73.5C 441.025,81.7342 439.025,90.0675 437.5,98.5 Z"/></g>
<g><path style="opacity:1" fill="#ff8f27" d="M 294.5,70.5 C 298.146,71.4615 299.313,73.7949 298,77.5C 290.156,107.21 282.156,136.877 274,166.5C 269.183,176.326 261.349,180.492 250.5,179C 249.5,178 248.5,177 247.5,176C 252.65,175.732 257.65,174.732 262.5,173C 265.333,171.5 267.5,169.333 269,166.5C 278.129,134.648 286.629,102.648 294.5,70.5 Z"/></g>
<g><path style="opacity:1" fill="#ff8d23" d="M 524.5,91.5 C 531.584,92.1255 538.25,91.4589 544.5,89.5C 545.384,82.9649 547.051,76.6315 549.5,70.5C 551.255,71.67 552.255,73.3367 552.5,75.5C 550.516,82.1012 548.85,88.7679 547.5,95.5C 540.825,95.6663 534.158,95.4996 527.5,95C 526.29,93.9609 525.29,92.7942 524.5,91.5 Z"/></g>
<g><path style="opacity:1" fill="#118e97" d="M 34.5,72.5 C 57.5024,72.3334 80.5024,72.5 103.5,73C 129.793,75.7067 138.96,89.8733 131,115.5C 128.013,130.471 122.68,144.471 115,157.5C 106.876,166.476 96.7097,170.976 84.5,171C 58.8268,171.833 33.1602,171.666 7.5,170.5C 16.5065,137.804 25.5065,105.138 34.5,72.5 Z M 111.5,98.5 C 91.9096,96.4875 72.243,95.9875 52.5,97C 47.3962,114.81 42.3962,132.644 37.5,150.5C 36.5,150.5 35.5,150.5 34.5,150.5C 39.1853,131.76 44.1853,113.093 49.5,94.5C 67.1572,93.3337 84.8239,93.167 102.5,94C 106.236,94.2849 109.236,95.7849 111.5,98.5 Z M 112.5,102.5 C 110.297,113.977 107.464,125.31 104,136.5C 102.027,144.142 97.1935,148.642 89.5,150C 73.8369,150.5 58.1702,150.667 42.5,150.5C 46.9894,134.209 51.3227,117.876 55.5,101.5C 74.5273,101.218 93.5273,101.551 112.5,102.5 Z"/></g>
<g><path style="opacity:1" fill="#ffbe7b" d="M 544.5,89.5 C 538.25,91.4589 531.584,92.1255 524.5,91.5C 531.067,90.799 537.733,90.1323 544.5,89.5 Z"/></g>
<g><path style="opacity:1" fill="#ff8e24" d="M 12.5,176.5 C 35.5,175.833 58.5,175.167 81.5,174.5C 104.648,174.521 119.814,163.521 127,141.5C 131.512,127.618 134.679,113.452 136.5,99C 135.469,95.8573 134.969,92.6907 135,89.5C 137.828,94.8041 139.328,100.471 139.5,106.5C 137.939,126.765 131.772,145.432 121,162.5C 111.904,172.131 100.737,177.631 87.5,179C 63.1667,179.667 38.8333,179.667 14.5,179C 13.6195,178.292 12.9528,177.458 12.5,176.5 Z"/></g>
<g><path style="opacity:1" fill="#ff902b" d="M 111.5,98.5 C 112.234,99.7079 112.567,101.041 112.5,102.5C 93.5273,101.551 74.5273,101.218 55.5,101.5C 51.3227,117.876 46.9894,134.209 42.5,150.5C 40.8333,150.5 39.1667,150.5 37.5,150.5C 42.3962,132.644 47.3962,114.81 52.5,97C 72.243,95.9875 91.9096,96.4875 111.5,98.5 Z"/></g>
<g><path style="opacity:1" fill="#0f8e97" d="M 179.5,97.5 C 197.836,97.3334 216.17,97.5001 234.5,98C 236.848,98.3459 238.681,99.5125 240,101.5C 241.405,105.072 241.738,108.739 241,112.5C 238.134,124.965 234.801,137.298 231,149.5C 226.578,160.256 218.745,167.089 207.5,170C 186.543,171.608 165.543,171.942 144.5,171C 140.198,169.065 138.198,165.732 138.5,161C 141.137,146.954 144.637,133.121 149,119.5C 155.467,106.866 165.633,99.5324 179.5,97.5 Z M 217.5,120.5 C 204.323,120.171 191.323,120.505 178.5,121.5C 173.737,121.963 170.903,124.63 170,129.5C 167.981,137.246 165.815,144.913 163.5,152.5C 162.448,152.649 161.448,152.483 160.5,152C 163.192,143.586 165.692,135.086 168,126.5C 169.598,121.901 172.765,119.068 177.5,118C 191.179,117.167 204.846,117.334 218.5,118.5C 218.137,119.183 217.804,119.85 217.5,120.5 Z M 216.5,125.5 C 214.982,132.236 213.149,138.903 211,145.5C 208.239,149.534 204.406,151.701 199.5,152C 189.172,152.5 178.839,152.666 168.5,152.5C 170.755,144.896 172.922,137.229 175,129.5C 175.465,128.069 176.299,126.903 177.5,126C 190.496,125.5 203.496,125.333 216.5,125.5 Z"/></g>
<g><path style="opacity:1" fill="#108e97" d="M 309.5,169.5 C 308.343,167.862 307.176,166.196 306,164.5C 303.489,174.211 300.822,183.877 298,193.5C 295.16,200.791 289.826,203.791 282,202.5C 279.5,202.167 277,201.833 274.5,201.5C 284.148,166.907 293.481,132.24 302.5,97.5C 309.175,97.3337 315.842,97.5004 322.5,98C 322.833,98.3333 323.167,98.6667 323.5,99C 322.362,100.734 321.862,102.568 322,104.5C 325.111,101.056 328.944,98.8894 333.5,98C 343.167,97.3333 352.833,97.3333 362.5,98C 378.357,100.525 384.857,109.691 382,125.5C 379.57,138.557 375.904,151.223 371,163.5C 368.408,166.762 365.241,169.262 361.5,171C 345.5,171.667 329.5,171.667 313.5,171C 312.255,170.209 310.922,169.709 309.5,169.5 Z M 361.5,121.5 C 347.896,120.186 334.229,120.186 320.5,121.5C 318.183,129.435 316.183,137.435 314.5,145.5C 313.778,145.918 313.278,146.584 313,147.5C 312.125,146.127 311.625,144.627 311.5,143C 313.815,134.559 315.815,126.059 317.5,117.5C 331.171,117.333 344.837,117.5 358.5,118C 360.426,118.422 361.426,119.589 361.5,121.5 Z M 361.5,125.5 C 359.468,134.427 357.135,143.26 354.5,152C 342.134,152.773 329.8,152.607 317.5,151.5C 319.446,142.881 321.78,134.381 324.5,126C 336.829,125.5 349.162,125.333 361.5,125.5 Z"/></g>
<g><path style="opacity:1" fill="#118e97" d="M 516.5,98.5 C 523.841,98.3337 531.174,98.5003 538.5,99C 532.417,121.161 526.251,143.327 520,165.5C 518.062,168.106 515.562,169.939 512.5,171C 507.5,171.667 502.5,171.667 497.5,171C 504.378,146.987 510.712,122.82 516.5,98.5 Z"/></g>
<g><path style="opacity:1" fill="#128f97" d="M 617.5,124.5 C 618.376,124.631 619.043,124.298 619.5,123.5C 619.058,122.261 618.391,121.261 617.5,120.5C 616.264,118.172 614.264,117.006 611.5,117C 598.504,116.5 585.504,116.333 572.5,116.5C 568.805,132.278 564.639,147.944 560,163.5C 557.749,168.369 553.915,170.869 548.5,171C 544.848,171.499 541.182,171.665 537.5,171.5C 543.832,146.84 550.165,122.173 556.5,97.5C 563.5,97.5 570.5,97.5 577.5,97.5C 576.986,99.5116 576.82,101.512 577,103.5C 579.669,100.836 582.836,99.0024 586.5,98C 597.5,97.3333 608.5,97.3333 619.5,98C 635.054,101.268 641.554,110.768 639,126.5C 635.059,141.486 631.226,156.486 627.5,171.5C 620.5,171.5 613.5,171.5 606.5,171.5C 610.028,156.389 614.028,141.389 618.5,126.5C 618.137,125.817 617.804,125.15 617.5,124.5 Z"/></g>
<g><path style="opacity:1" fill="#0e8e97" d="M 682.5,124.5 C 684.265,125.461 686.265,125.795 688.5,125.5C 699.838,125.333 711.172,125.5 722.5,126C 736.745,128.99 741.911,137.49 738,151.5C 734.415,163.083 726.581,169.583 714.5,171C 690.833,171.667 667.167,171.667 643.5,171C 644.794,165.666 646.627,160.499 649,155.5C 650.419,154.54 651.919,153.707 653.5,153C 673.004,152.832 692.338,152.332 711.5,151.5C 714.812,151.851 717.145,150.518 718.5,147.5C 718.5,146.167 718.5,144.833 718.5,143.5C 701.807,143.789 685.14,143.289 668.5,142C 660.344,140.013 656.011,134.846 655.5,126.5C 656.241,110.263 664.574,100.763 680.5,98C 703.831,97.5 727.164,97.3334 750.5,97.5C 750.78,106.12 747.113,112.287 739.5,116C 720.5,116.333 701.5,116.667 682.5,117C 679.408,118.423 677.408,120.757 676.5,124C 678.473,124.495 680.473,124.662 682.5,124.5 Z"/></g>
<g><path style="opacity:1" fill="#ff922e" d="M 688.5,125.5 C 686.265,125.795 684.265,125.461 682.5,124.5C 683.024,121.812 684.691,120.312 687.5,120C 706.232,119.962 724.898,119.295 743.5,118C 745.609,116.859 747.442,115.359 749,113.5C 751.062,109.312 752.729,104.979 754,100.5C 755.353,101.685 756.52,103.019 757.5,104.5C 756.068,113.101 751.401,119.267 743.5,123C 725.047,124.113 706.714,124.947 688.5,125.5 Z"/></g>
<g><path style="opacity:1" fill="#ff8f27" d="M 540.5,101.5 C 542.352,102.52 543.685,104.02 544.5,106C 539.203,126.224 533.703,146.391 528,166.5C 523.183,176.326 515.349,180.492 504.5,179C 503.5,178 502.5,177 501.5,176C 506.572,175.322 511.572,174.322 516.5,173C 519.333,171.5 521.5,169.333 523,166.5C 529.305,144.945 535.138,123.279 540.5,101.5 Z"/></g>
<g><path style="opacity:1" fill="#ff8c21" d="M 243.5,105.5 C 243.56,104.957 243.893,104.624 244.5,104.5C 246.913,107.367 247.913,110.701 247.5,114.5C 245.636,125.956 243.136,137.289 240,148.5C 233.921,165.909 221.754,176.076 203.5,179C 185.833,179.667 168.167,179.667 150.5,179C 147.193,178.347 144.527,176.681 142.5,174C 161.054,175.536 179.721,175.87 198.5,175C 214.607,173.55 226.44,165.717 234,151.5C 237.645,138.92 240.978,126.253 244,113.5C 244.801,110.633 244.634,107.966 243.5,105.5 Z"/></g>
<g><path style="opacity:1" fill="#ffb56a" d="M 493.5,112.5 C 492.475,112.103 492.308,111.437 493,110.5C 493.464,111.094 493.631,111.761 493.5,112.5 Z"/></g>
<g><path style="opacity:1" fill="#ff8c22" d="M 309.5,169.5 C 310.85,173.025 313.516,174.858 317.5,175C 330.833,175.667 344.167,175.667 357.5,175C 368.951,172.882 375.784,166.049 378,154.5C 380.333,145.167 382.667,135.833 385,126.5C 385.974,120.813 385.474,115.313 383.5,110C 384.332,109.312 384.998,109.479 385.5,110.5C 389.384,117.851 390.217,125.518 388,133.5C 385.958,143.669 383.291,153.669 380,163.5C 376.563,171.938 370.396,177.105 361.5,179C 347.167,179.667 332.833,179.667 318.5,179C 316.064,178.07 313.731,176.903 311.5,175.5C 309.283,184.369 306.449,193.036 303,201.5C 297.507,208.666 290.341,211.499 281.5,210C 280.5,209 279.5,208 278.5,207C 286.503,207.466 293.336,204.966 299,199.5C 302.432,190.201 305.266,180.701 307.5,171C 307.836,169.97 308.503,169.47 309.5,169.5 Z"/></g>
<g><path style="opacity:1" fill="#ff8e25" d="M 493.5,112.5 C 495.446,114.734 496.613,117.401 497,120.5C 497.667,125.5 497.667,130.5 497,135.5C 493.162,150.186 489.329,164.852 485.5,179.5C 478.825,179.666 472.158,179.5 465.5,179C 464.29,177.961 463.29,176.794 462.5,175.5C 469.584,176.126 476.25,175.459 482.5,173.5C 486.33,158.181 490.163,142.847 494,127.5C 494.588,122.472 494.422,117.472 493.5,112.5 Z"/></g>
<g><path style="opacity:1" fill="#ff922d" d="M 641.5,113.5 C 643.714,115.995 644.881,118.995 645,122.5C 645.667,126.5 645.667,130.5 645,134.5C 641.059,149.486 637.226,164.486 633.5,179.5C 626.825,179.666 620.158,179.5 613.5,179C 612.313,177.981 611.313,176.814 610.5,175.5C 617.055,174.816 623.555,174.149 630,173.5C 634.002,158.162 638.002,142.829 642,127.5C 642.648,122.796 642.481,118.129 641.5,113.5 Z"/></g>
<g><path style="opacity:1" fill="#faa245" d="M 178.5,121.5 C 191.323,120.505 204.323,120.171 217.5,120.5C 218.833,121.167 218.833,121.833 217.5,122.5C 204.677,121.505 191.677,121.171 178.5,121.5 Z"/></g>
<g><path style="opacity:1" fill="#ff8b20" d="M 470.5,120.5 C 471.686,121.961 471.686,123.295 470.5,124.5C 457.163,124.333 443.829,124.5 430.5,125C 426.773,137.739 423.273,150.573 420,163.5C 415.795,174.856 407.628,180.023 395.5,179C 394.313,177.981 393.313,176.814 392.5,175.5C 400.677,176.056 407.51,173.389 413,167.5C 418.118,152.365 422.618,137.032 426.5,121.5C 441.152,120.501 455.818,120.167 470.5,120.5 Z"/></g>
<g><path style="opacity:1" fill="#ff8b1f" d="M 617.5,120.5 C 618.391,121.261 619.058,122.261 619.5,123.5C 619.043,124.298 618.376,124.631 617.5,124.5C 604.5,124.5 591.5,124.5 578.5,124.5C 575.136,138.956 571.303,153.289 567,167.5C 561.728,175.719 554.228,179.552 544.5,179C 543.313,177.981 542.313,176.814 541.5,175.5C 548.87,175.373 555.37,173.04 561,168.5C 566.745,152.853 571.245,136.853 574.5,120.5C 588.833,120.5 603.167,120.5 617.5,120.5 Z"/></g>
<g><path style="opacity:1" fill="#ff8e27" d="M 178.5,121.5 C 191.677,121.171 204.677,121.505 217.5,122.5C 217.443,123.609 217.11,124.609 216.5,125.5C 203.496,125.333 190.496,125.5 177.5,126C 176.299,126.903 175.465,128.069 175,129.5C 172.922,137.229 170.755,144.896 168.5,152.5C 166.833,152.5 165.167,152.5 163.5,152.5C 165.815,144.913 167.981,137.246 170,129.5C 170.903,124.63 173.737,121.963 178.5,121.5 Z"/></g>
<g><path style="opacity:1" fill="#ff912c" d="M 361.5,121.5 C 362.833,122.833 362.833,124.167 361.5,125.5C 349.162,125.333 336.829,125.5 324.5,126C 321.78,134.381 319.446,142.881 317.5,151.5C 316.504,151.586 315.671,151.252 315,150.5C 314.506,148.866 314.34,147.199 314.5,145.5C 316.183,137.435 318.183,129.435 320.5,121.5C 334.229,120.186 347.896,120.186 361.5,121.5 Z"/></g>
<g><path style="opacity:1" fill="#ff922e" d="M 741.5,137.5 C 748.685,154.748 743.685,167.582 726.5,176C 722.653,177.616 718.653,178.616 714.5,179C 693.167,179.667 671.833,179.667 650.5,179C 649.743,177.488 648.743,176.154 647.5,175C 670.5,174.667 693.5,174.333 716.5,174C 735.668,169.322 744.001,157.155 741.5,137.5 Z"/></g>
<g><path style="opacity:1" fill="#ff912c" d="M 718.5,147.5 C 717.145,150.518 714.812,151.851 711.5,151.5C 698.458,151.853 685.458,151.353 672.5,150C 669.339,148.587 666.339,146.92 663.5,145C 662.549,144.282 662.383,143.449 663,142.5C 665.543,144.354 668.376,145.521 671.5,146C 687.181,146.284 702.848,146.784 718.5,147.5 Z"/></g>
<g><path style="opacity:1" fill="#ffc07f" d="M 81.5,174.5 C 58.5,175.167 35.5,175.833 12.5,176.5C 11.9569,176.44 11.6236,176.107 11.5,175.5C 34.8238,174.5 58.1571,174.167 81.5,174.5 Z"/></g>
<g><path style="opacity:1" fill="#ffbe7c" d="M 482.5,173.5 C 476.25,175.459 469.584,176.126 462.5,175.5C 469.067,174.799 475.733,174.132 482.5,173.5 Z"/></g>
</svg>
