<svg xmlns="http://www.w3.org/2000/svg" height="36.61338" width="193.93489" viewBox="0 0 193.93489 36.61338"><path d="M192.91872,12.59947A11.14755,11.14755,0,0,0,193.93489,7.684c0-5.42084-5.19721-7.684-19.43314-7.684-12.88338,0-18.1949,2.036-22.0355,5.8771-2.714,2.7104-4.181,5.988-4.181,8.64383,0,3.95567,2.08876,5.36808,9.43459,7.23143,7.85133,1.97787,9.37827,2.37224,9.37827,4.06841,0,1.86323-1.75235,2.9376-4.74818,2.9376-2.70866,0-4.00844-.849-4.00844-2.20317a6.0957,6.0957,0,0,1,.73261-2.88126H141.62034a10.97536,10.97536,0,0,0-1.24523,5.02635c0,5.37,4.51908,7.91309,20.112,7.91309,13.16307,0,18.47711-2.20685,22.03422-5.76435a13.47534,13.47534,0,0,0,4.29192-9.43281c0-4.01375-2.6522-5.65347-10.05624-7.40407-7.3986-1.75235-8.81291-2.20317-8.81291-3.44662,0-1.41062,1.58327-2.71219,4.6901-2.71219,2.48678,0,3.89934.90525,3.89934,2.14684a5.1263,5.1263,0,0,1-.738,2.59956h17.12188ZM151.21617.90347H106.699l-4.74818,8.871h11.80874L99.91632,35.70778h22.03421L135.79375,9.7745H146.4718l4.74449-8.871ZM98.39865,9.71816,103.09054.90347H61.67784L43.14735,35.70793H85.17789l4.6901-8.81469H67.94691l2.43048-4.40646h19.662L94.5586,13.9557H74.842l2.37046-4.23738H98.4Zm-49.98,9.77632c-2.76852,5.19532-4.521,8.133-7.2895,10.90167-4.12285,4.12463-10.958,6.217-21.12905,6.217C5.87595,36.61319,0,33.22108,0,26.8932c0-3.21946.79257-5.53716,2.714-9.03832L4.939,13.623H23.247l-4.54643,8.6966a7.88978,7.88978,0,0,0-1.01618,3.16122,1.95158,1.95158,0,0,0,2.20317,2.14684c2.37225,0,3.5594-1.58149,5.14089-4.51924L36.67538.90382H58.14386L48.4184,19.49534" fill="#115740"/></svg>