<?xml version="1.0" encoding="UTF-8"?>
<!DOCTYPE svg PUBLIC "-//W3C//DTD SVG 1.1//EN" "http://www.w3.org/Graphics/SVG/1.1/DTD/svg11.dtd">
<svg xmlns="http://www.w3.org/2000/svg" version="1.1" width="653px" height="152px" style="shape-rendering:geometricPrecision; text-rendering:geometricPrecision; image-rendering:optimizeQuality; fill-rule:evenodd; clip-rule:evenodd" xmlns:xlink="http://www.w3.org/1999/xlink">
<g><path style="opacity:0.999" fill="#060606" d="M 442.5,-0.5 C 452.167,-0.5 461.833,-0.5 471.5,-0.5C 499.602,3.85847 527.936,5.02513 556.5,3C 557.598,5.49775 557.432,7.99775 556,10.5C 552.876,16.7557 548.376,21.7557 542.5,25.5C 532.338,23.5918 522.172,23.2585 512,24.5C 507.953,59.0417 506.619,93.7084 508,128.5C 510.087,133.748 513.92,137.082 519.5,138.5C 520.953,140.644 520.62,142.477 518.5,144C 503.482,144.478 488.482,144.811 473.5,145C 472.643,144.311 471.977,143.478 471.5,142.5C 477.115,135.494 480.281,127.494 481,118.5C 482.879,87.1857 483.879,55.8523 484,24.5C 483.626,23.5838 483.126,22.7504 482.5,22C 472.716,19.6753 463.049,20.0086 453.5,23C 451.972,24.6477 451.305,26.6477 451.5,29C 452.239,32.8269 452.406,36.6603 452,40.5C 449.408,41.9817 447.075,41.6483 445,39.5C 442.396,27.1506 440.063,14.8173 438,2.5C 439.409,1.21886 440.909,0.218865 442.5,-0.5 Z"/></g>
<g><path style="opacity:0.999" fill="#070707" d="M -0.5,147.5 C -0.5,143.167 -0.5,138.833 -0.5,134.5C 0.833333,127.5 0.833333,120.5 -0.5,113.5C -0.5,110.833 -0.5,108.167 -0.5,105.5C 0.660275,102.867 2.66027,102.034 5.5,103C 24.9608,121.287 47.9608,128.287 74.5,124C 76.0488,122.786 77.2155,121.286 78,119.5C 79.5058,112.567 79.8391,105.567 79,98.5C 75.9651,91.132 70.4651,87.2986 62.5,87C 47.4605,86.8967 32.4605,86.23 17.5,85C 10.7282,83.8645 5.5615,80.3645 2,74.5C -1.22475,57.8482 0.775246,41.8482 8,26.5C 8.95604,25.4214 9.78937,24.2547 10.5,23C 20.0317,16.7366 29.6984,10.7366 39.5,5C 54.4972,4.06207 69.3305,5.22874 84,8.5C 84.772,8.3552 85.4387,8.02186 86,7.5C 86.3034,5.1116 87.1367,2.94493 88.5,1C 91.856,-0.0307304 93.856,1.13594 94.5,4.5C 92.9674,18.4355 91.9674,32.4355 91.5,46.5C 89.7763,47.6613 88.1096,47.4947 86.5,46C 84.9918,40.6555 81.9918,36.3221 77.5,33C 62.4527,28.4012 47.1194,25.7345 31.5,25C 30.0692,25.4652 28.9025,26.2986 28,27.5C 24.7037,39.9737 26.3704,51.6403 33,62.5C 34.918,63.5418 36.7513,64.7085 38.5,66C 57.1274,67.3898 75.7941,68.3898 94.5,69C 100.508,71.6917 103.175,76.3584 102.5,83C 101.068,95.8256 98.2351,108.326 94,120.5C 83.5,128.333 74.3333,137.5 66.5,148C 46.1521,151.897 27.1521,148.397 9.5,137.5C 8.82812,140.897 7.99478,144.23 7,147.5C 4.4213,150.099 1.9213,150.099 -0.5,147.5 Z"/></g>
<g><path style="opacity:0.999" fill="#070707" d="M 307.5,1.5 C 311.182,1.3347 314.848,1.50137 318.5,2C 334.578,26.0879 353.578,47.7545 375.5,67C 386.011,75.5137 396.511,84.0137 407,92.5C 407.772,92.3552 408.439,92.0219 409,91.5C 409.812,69.1674 410.145,46.834 410,24.5C 409.049,19.884 406.549,16.384 402.5,14C 398.637,12.2678 394.637,10.9344 390.5,10C 388.078,8.11203 388.078,6.11203 390.5,4C 392.534,2.99445 394.7,2.49445 397,2.5C 407.835,3.81955 418.668,3.81955 429.5,2.5C 431.693,2.32621 433.527,2.99288 435,4.5C 429.838,15.8149 426.838,27.8149 426,40.5C 424.145,72.8221 423.645,105.155 424.5,137.5C 421.15,137.665 417.817,137.498 414.5,137C 408.572,129.068 401.905,121.735 394.5,115C 368.659,97.886 345.326,77.7193 324.5,54.5C 323.914,54.7093 323.414,55.0426 323,55.5C 322.316,82.5458 322.65,109.546 324,136.5C 323.5,138.333 322.333,139.5 320.5,140C 312.493,139.558 305.493,141.891 299.5,147C 297.888,147.72 296.388,147.554 295,146.5C 296.96,139.943 298.96,133.276 301,126.5C 302.387,120.564 303.387,114.564 304,108.5C 305.609,84.8539 306.275,61.1872 306,37.5C 304.903,29.14 301.07,22.3066 294.5,17C 290.667,13.8333 286.833,10.6667 283,7.5C 282.28,5.88762 282.446,4.38762 283.5,3C 291.677,2.82923 299.677,2.32923 307.5,1.5 Z"/></g>
<g><path style="opacity:0.999" fill="#080808" d="M 149.5,83.5 C 158.932,82.8577 168.266,82.191 177.5,81.5C 178.995,81.5852 179.995,80.9185 180.5,79.5C 175.723,68.279 171.223,56.9457 167,45.5C 166.163,43.1558 164.829,41.1558 163,39.5C 155.677,52.4889 149.677,66.1556 145,80.5C 137.425,96.2174 130.425,112.217 124,128.5C 123.088,132.795 122.421,137.128 122,141.5C 120.915,142.293 119.748,142.96 118.5,143.5C 110.288,142.725 102.122,142.391 94,142.5C 93.3333,141.167 93.3333,139.833 94,138.5C 108.354,118.475 120.687,97.1417 131,74.5C 138.552,58.0635 145.552,41.3968 152,24.5C 153.293,20.4179 152.126,17.2513 148.5,15C 143.478,12.4375 138.145,11.1041 132.5,11C 127.042,7.33906 127.542,4.50573 134,2.5C 147.481,4.83744 160.981,4.83744 174.5,2.5C 176.1,2.55074 177.6,2.88407 179,3.5C 191.444,43.1668 206.444,81.8335 224,119.5C 227.068,125.299 230.401,130.966 234,136.5C 234.758,138.769 234.591,140.936 233.5,143C 223.114,143.407 212.781,143.74 202.5,144C 198.769,127.586 193.269,111.752 186,96.5C 185.167,95.6667 184.333,94.8333 183.5,94C 170.485,93.5642 157.485,93.5642 144.5,94C 146.036,90.4284 147.703,86.9284 149.5,83.5 Z"/></g>
<g><path style="opacity:0.999" fill="#060606" d="M 268.5,3.5 C 270.857,3.33669 273.19,3.50335 275.5,4C 276.097,5.06171 276.43,6.22838 276.5,7.5C 274.01,21.0547 272.51,34.7214 272,48.5C 270.603,75.154 270.269,101.821 271,128.5C 274.543,132.675 278.376,136.509 282.5,140C 280.555,143.317 277.889,144.151 274.5,142.5C 263.98,142.955 253.646,144.622 243.5,147.5C 240.941,146.281 239.607,144.281 239.5,141.5C 244.56,102.323 246.727,62.9898 246,23.5C 244.813,16.6336 240.646,13.1336 233.5,13C 230.833,10.6667 230.833,8.33333 233.5,6C 245.381,5.9666 257.048,5.13327 268.5,3.5 Z"/></g>
<g><path style="opacity:0.999" fill="#060606" d="M 652.5,79.5 C 652.5,84.1667 652.5,88.8333 652.5,93.5C 650.498,101.326 648.664,109.326 647,117.5C 646.275,119.949 645.275,122.283 644,124.5C 638.074,129.214 632.241,134.047 626.5,139C 622.939,143.386 619.273,147.552 615.5,151.5C 606.5,151.5 597.5,151.5 588.5,151.5C 577.823,148.83 567.49,145.163 557.5,140.5C 557.99,144.487 557.324,148.154 555.5,151.5C 553.833,151.5 552.167,151.5 550.5,151.5C 549.847,150.193 549.18,148.86 548.5,147.5C 550.35,134.549 550.85,121.549 550,108.5C 551.481,105.92 553.648,105.087 556.5,106C 575.961,124.287 598.961,131.287 625.5,127C 628.169,123.664 629.669,119.831 630,115.5C 631.248,108.785 630.248,102.452 627,96.5C 625.062,93.8941 622.562,92.0608 619.5,91C 602.177,89.9666 584.844,88.9666 567.5,88C 555.036,85.4198 549.37,77.7531 550.5,65C 550.665,54.51 552.498,44.3434 556,34.5C 557.302,30.7257 559.469,27.559 562.5,25C 571.331,19.0833 580.331,13.4166 589.5,8C 604.653,6.58874 619.653,7.75541 634.5,11.5C 636.526,9.29511 638.192,6.79511 639.5,4C 642.259,3.02263 644.259,3.85596 645.5,6.5C 642.412,18.8432 641.745,31.3432 643.5,44C 643.695,46.3523 643.028,48.3523 641.5,50C 639.924,50.3876 638.591,49.8876 637.5,48.5C 635.824,43.3321 632.824,39.1654 628.5,36C 612.886,30.7598 596.886,28.0931 580.5,28C 579.333,28.5 578.5,29.3333 578,30.5C 574.625,43.4221 576.791,55.2555 584.5,66C 586.332,66.7485 587.999,67.7485 589.5,69C 607.798,70.3004 626.132,71.3004 644.5,72C 648.35,73.3532 651.017,75.8532 652.5,79.5 Z"/></g>
<g><path style="opacity:0.761" fill="#434343" d="M 177.5,81.5 C 168.266,82.191 158.932,82.8577 149.5,83.5C 158.44,81.5278 167.773,80.8611 177.5,81.5 Z"/></g>
</svg>
